/* XPM */
static char *d11719678a514a528b64c2aab49873e1yI4yionyEzIBb6kn[] = {
/* columns rows colors chars-per-pixel */
"32 32 163 2 ",
"   c #010101",
".  c #0A0104",
"X  c #020009",
"o  c #0A000A",
"O  c #190E0A",
"+  c #170D0C",
"@  c #151106",
"#  c #11130A",
"$  c #19120C",
"%  c #1B1809",
"&  c #1F1714",
"*  c #1F1D10",
"=  c #261400",
"-  c #2C1400",
";  c #241D0D",
":  c #301502",
">  c #3B1B00",
",  c #251A13",
"<  c #3A2009",
"1  c #33240D",
"2  c #2B2A15",
"3  c #342510",
"4  c #302813",
"5  c #3A261C",
"6  c #3B2F19",
"7  c #372B17",
"8  c #383417",
"9  c #3B351A",
"0  c #302720",
"q  c #3A2720",
"w  c #3D3020",
"e  c #442402",
"r  c #4D2302",
"t  c #5A2500",
"y  c #4B3F0F",
"u  c #523F07",
"i  c #412F19",
"p  c #43311D",
"a  c #4C3F1C",
"s  c #633603",
"d  c #6C3400",
"f  c #673804",
"g  c #6E3907",
"h  c #693A0C",
"j  c #423221",
"k  c #403F20",
"l  c #4E3F22",
"z  c #553C23",
"x  c #4D441D",
"c  c #59481D",
"v  c #4C4420",
"b  c #554624",
"n  c #5C4424",
"m  c #564824",
"M  c #58492A",
"N  c #56452B",
"B  c #544530",
"V  c #675325",
"C  c #665A20",
"Z  c #6D532D",
"A  c #725827",
"S  c #71562B",
"D  c #795E2F",
"F  c #6E5B36",
"G  c #795630",
"H  c #755639",
"J  c #7A5E39",
"K  c #735838",
"L  c #78632E",
"P  c #7C6039",
"I  c #6A5540",
"U  c #8C4601",
"Y  c #824204",
"T  c #954500",
"R  c #944A09",
"E  c #9A5403",
"W  c #945303",
"Q  c #BC6000",
"!  c #896437",
"~  c #846B35",
"^  c #C96300",
"/  c #DD6E02",
"(  c #D46708",
")  c #DD7200",
"_  c #896F4C",
"`  c #887346",
"'  c #83734C",
"]  c #88724C",
"[  c #857251",
"{  c #A17A41",
"}  c #A37543",
"|  c #AE8C4F",
" . c #B78747",
".. c #BF9F6E",
"X. c #BDA56E",
"o. c #BEA475",
"O. c #C79F7B",
"+. c #C2A16D",
"@. c #C3A171",
"#. c #547A9E",
"$. c #5B7C9F",
"%. c #4E7AA4",
"&. c #4D7CAA",
"*. c #5177A2",
"=. c #537BA5",
"-. c #5A7AA3",
";. c #537CAA",
":. c #5A7EAA",
">. c #5F83A7",
",. c #5683AC",
"<. c #5B83AD",
"1. c #5C88AE",
"2. c #578CAC",
"3. c #5685B3",
"4. c #5D84B1",
"5. c #5C89B2",
"6. c #5287B9",
"7. c #5E83B8",
"8. c #5D89BA",
"9. c #6188A7",
"0. c #6285AC",
"q. c #648AAC",
"w. c #6086B2",
"e. c #6DAFE9",
"r. c #76AEE5",
"t. c #7BAEE7",
"y. c #75AEEA",
"u. c #7AAEE9",
"i. c #74B1E7",
"p. c #74B1EC",
"a. c #7AB2EB",
"s. c #77ADF5",
"d. c #6EB0F3",
"f. c #75B2F2",
"g. c #7BB5F2",
"h. c #7EBAF5",
"j. c #7EBBFB",
"k. c #7EC1FF",
"l. c #9EA9A5",
"z. c #9FA9AE",
"x. c #9FA2B1",
"c. c #A3A5AE",
"v. c #A9A5AE",
"b. c #A3A5B3",
"n. c #A3A9B7",
"m. c #AAA4B2",
"M. c #82B6EF",
"N. c #83B5F3",
"B. c #83BBF4",
"V. c #8BBEF5",
"C. c #85BEFB",
"Z. c #8ABEFB",
"A. c #8AB5F9",
"S. c #82C0F6",
"D. c #85C1FC",
"F. c #8CC1FB",
"G. c #EBEBF7",
"H. c #E6EEFF",
"J. c #EBEDFE",
"K. c #F0EDF6",
"L. c #F2ECFD",
"P. c #EBF1FC",
"I. c #F2F0FB",
/* pixels */
"w.:.=.=.;.=.=.=.&.=.=.;.<.5.3.0.7.q.7.0.<.5.3.=.=.*.&.*.-.=.%.=.",
"C.g.p.p.p.p.p.p.p.t.p.f.B.F.k.Z.D.B.D.Z.D.C.h.r.y.u.p.p.f.y.g.p.",
"5.,.%.=.,.=.=.%.=.%.-.;.5.<.5.<.3.8.0.1.3.0.-.,.;.=.%.,.-.*.%.%.",
"C.a.i.i.i.p.p.p.p.f.u.f.Z.B.C.C.V.D.j.D.D.C.j.p.i.i.d.p.i.i.p.p.",
"5.;.;.;.=.%.%.%.$.%.=.=.5.<.<.5.- 7.w.q.0.<.,.#.-.-.=.;.-.;.;.*.",
"C.g.y.y.p.p.f.y.p.y.p.p.j.C.V.Z.< C.D.C.C.C.N.s.d.f.r.i.d.i.p.f.",
"4.:.=.=.=.;.=.=.=.*.%.:.5.3.q.3.- - 0.<.1.7.,.%.$.*.&.#.,.=.*.=.",
"C.g.f.y.p.y.y.y.J.p.i.p.C.Z.H.Z.  f G.D.C.C.B.p.H.t.d.r.y.p.p.p.",
"<.:.=.=.=.=.=.;.c.#.;.=.v.5.m.  P r - 2.b.<.:.=.v.=.%.=.;.*.%.=.",
"D.h.p.p.p.p.p.y.g.J.y.J.J.      c E t X J.G.h.J.t.p.g.p.y.g.g.i.",
"=.,.<.5.<.<.<.5.<.4.2.m.  I V   ; r h -   b.<.w.6.7.:.0.,.4.<.<.",
"p.N.C.C.C.C.C.Z.C.D.A.  { % 5 C x g ^ d }   a.D.C.C.F.S.C.D.C.C.",
"%.,.4.4.5.5.4.5.v.3.  Z @ 8 x 5 % - W g - Z X 5.m.0.5.4.4.0.<.4.",
"y.B.D.D.C.C.D.D.G.C.   .m F V . 7 > ) Q f |   S.J.S.j.C.C.C.C.C.",
"=.<.4.<.<.w.<.w.b.v.X L @ 9 1 X * : T W d P . c.x.q.5.4.4.0.4.w.",
"p.h.C.D.D.D.C.D.D.L.  O.x n c   0 > ( ) M +.  J.D.C.C.D.C.D.C.D.",
"=.<.<.w.4.4.<.4.5.7.  ] w z x   , - Y R a ] X 4.w.4.4.w.4.7.4.4.",
"p.h.D.D.C.S.D.C.C.Z.  X.N K A . 5   E ^ D ..  S.D.D.D.D.C.C.D.D.",
"=.:.4.4.4.w.4.4.<.q.X [ $ 3 2   #   e U , ' o 0.4.w.w.w.<.4.4.w.",
"a.g.C.F.C.S.C.C.Z.H.  x @.n n p j t > E +.2   P.S.D.C.S.F.Z.D.S.",
":.,.4.:.<.:.4.4.>.b.c., ' i 9 i 9 j = r [ * b.l.,.<.3.,.<.,.4.,.",
"C.g.p.y.p.p.y.p.y.t.J.G.~ @.S H F K > O.3 L.I.s.y.y.y.y.p.p.y.y.",
"4.<.;.=.;.%.=.;.&.&.$.n.w m ] b x v ` ; O b.,.%.;.;.=.;.;.;.;.=.",
"C.g.p.y.p.y.y.y.y.r.t.J.G.m ! @.G +.4 , L.P.h.t.y.y.p.p.y.y.p.y.",
"4.,.;.=.=.=.=.=.=.&.;.-.x.n.9 3 _ ; # z.b.w.,.&.;.=.=.=.;.=.;.=.",
"C.g.p.p.p.y.y.y.r.u.e.u.Z.H.J.L.B G.P.J.Z.B.B.u.p.y.p.p.p.y.y.p.",
"4.:.%.*.;.=.;.;.%.,.%.,.,.<.0.b.b.n.0.0.<.w.,.=.%.=.=.=.=.=.=.=.",
"C.g.p.u.y.r.y.y.p.r.i.a.C.D.V.D.Z.C.V.C.C.C.h.i.y.y.p.u.y.y.p.y.",
"3.:.=.;.;.&.;.=.&.=.=.;.<.3.w.4.<.4.w.<.1.<.,.=.=.;.=.=.=.=.=.%.",
"C.g.y.y.y.y.p.y.i.i.a.p.B.D.S.S.D.C.C.B.C.C.M.a.y.p.y.y.p.p.p.p.",
"4.:.;.=.=.=.=.=.=.%.&.;.5.7.4.7.<.4.4.5.4.7.,.=.=.=.;.=.=.=.=.=.",
"g.g.h.h.h.h.h.h.h.B.B.B.g.a.g.M.g.g.h.g.g.g.h.h.h.h.h.h.h.h.h.h."
};
