/* XPM */
static char * boat_left_xpm[] = {
"32 32 253 2",
"  	c #19E0FF",
". 	c #00C8FF",
"+ 	c #00D5FF",
"@ 	c #67E9FF",
"# 	c #B7F4FF",
"$ 	c #15B3E4",
"% 	c #1BA8D6",
"& 	c #504A48",
"* 	c #4D3A27",
"= 	c #503B28",
"- 	c #4C3725",
"; 	c #453221",
"> 	c #4A3725",
", 	c #473627",
"' 	c #402E1D",
") 	c #342213",
"! 	c #14627E",
"~ 	c #08A7D5",
"{ 	c #0FBBEE",
"] 	c #331E16",
"^ 	c #685037",
"/ 	c #785E40",
"( 	c #5B442A",
"_ 	c #604A2C",
": 	c #594228",
"< 	c #5D472A",
"[ 	c #5E482B",
"} 	c #5C462A",
"| 	c #765D43",
"1 	c #664E32",
"2 	c #4B371D",
"3 	c #2E1D0F",
"4 	c #4D391E",
"5 	c #2B1811",
"6 	c #326E79",
"7 	c #248EB5",
"8 	c #674F36",
"9 	c #654D31",
"0 	c #5A442A",
"a 	c #4D351E",
"b 	c #4C351C",
"c 	c #8E7252",
"d 	c #8C6E4D",
"e 	c #37200A",
"f 	c #442C15",
"g 	c #472E17",
"h 	c #907250",
"i 	c #7C5F40",
"j 	c #412911",
"k 	c #6A5238",
"l 	c #664F32",
"m 	c #523D23",
"n 	c #432F21",
"o 	c #412E19",
"p 	c #48341B",
"q 	c #15768E",
"r 	c #2CA4C3",
"s 	c #6A5237",
"t 	c #573F26",
"u 	c #71573B",
"v 	c #826544",
"w 	c #321C08",
"x 	c #3B250E",
"y 	c #3D260F",
"z 	c #3F2812",
"A 	c #8A6D4D",
"B 	c #917452",
"C 	c #351E09",
"D 	c #36210C",
"E 	c #3C260E",
"F 	c #3F2811",
"G 	c #927553",
"H 	c #755A39",
"I 	c #2A1508",
"J 	c #624A32",
"K 	c #674F32",
"L 	c #553F25",
"M 	c #483424",
"N 	c #422F1B",
"O 	c #48351B",
"P 	c #0E8AB1",
"Q 	c #258CB2",
"R 	c #735A3C",
"S 	c #4A331B",
"T 	c #957755",
"U 	c #8B6E4E",
"V 	c #240F07",
"W 	c #311B08",
"X 	c #321D08",
"Y 	c #8E7353",
"Z 	c #8C6F4E",
"` 	c #271107",
" .	c #937755",
"..	c #775C3A",
"+.	c #311D0D",
"@.	c #66513C",
"#.	c #523D24",
"$.	c #4C3727",
"%.	c #4B3621",
"&.	c #47341B",
"*.	c #2B92A6",
"=.	c #664E33",
"-.	c #574026",
";.	c #4C351D",
">.	c #452E16",
",.	c #987A59",
"'.	c #8D714F",
").	c #453119",
"!.	c #2D1808",
"~.	c #3E280E",
"{.	c #452D15",
"].	c #8F7453",
"^.	c #8F7250",
"/.	c #351F09",
"(.	c #412A10",
"_.	c #472E16",
":.	c #2F1908",
"<.	c #6E573E",
"[.	c #6E5539",
"}.	c #503B21",
"|.	c #372515",
"1.	c #46311D",
"2.	c #533D24",
"3.	c #372414",
"4.	c #313E4B",
"5.	c #59442A",
"6.	c #4D3920",
"7.	c #402911",
"8.	c #301A08",
"9.	c #987B59",
"0.	c #8D7050",
"a.	c #433019",
"b.	c #8A6F4F",
"c.	c #917351",
"d.	c #422914",
"e.	c #251007",
"f.	c #967856",
"g.	c #7D6142",
"h.	c #281307",
"i.	c #6F583F",
"j.	c #312111",
"k.	c #46321B",
"l.	c #553E27",
"m.	c #4A371E",
"n.	c #45321E",
"o.	c #685034",
"p.	c #563F26",
"q.	c #4D371D",
"r.	c #422A13",
"s.	c #9A7E5B",
"t.	c #907351",
"u.	c #8A6E4E",
"v.	c #8E714F",
"w.	c #856949",
"x.	c #35210E",
"y.	c #68523C",
"z.	c #765C3E",
"A.	c #48341C",
"B.	c #392317",
"C.	c #46311B",
"D.	c #432F1B",
"E.	c #422E19",
"F.	c #417A96",
"G.	c #6B5336",
"H.	c #543D24",
"I.	c #4B331B",
"J.	c #967957",
"K.	c #422D17",
"L.	c #271307",
"M.	c #36200A",
"N.	c #3A240E",
"O.	c #8C704F",
"P.	c #38220B",
"Q.	c #3A230E",
"R.	c #826647",
"S.	c #67513C",
"T.	c #6C5436",
"U.	c #412C1F",
"V.	c #4A361D",
"W.	c #45311D",
"X.	c #49341E",
"Y.	c #2C8394",
"Z.	c #3D8291",
"`.	c #654D32",
" +	c #745A39",
".+	c #8C6F4D",
"++	c #3C2512",
"@+	c #3D270F",
"#+	c #3E280F",
"$+	c #3F2810",
"%+	c #8E7453",
"&+	c #452E18",
"*+	c #36200C",
"=+	c #3B240E",
"-+	c #432B14",
";+	c #836848",
">+	c #33200E",
",+	c #513C21",
"'+	c #443021",
")+	c #4C3824",
"!+	c #49361D",
"~+	c #179BB1",
"{+	c #2F6C7A",
"]+	c #553F26",
"^+	c #462D18",
"/+	c #4E381E",
"(+	c #4B331A",
"_+	c #4F391E",
":+	c #8B6F4E",
"<+	c #8F714F",
"[+	c #4C381D",
"}+	c #49331A",
"|+	c #896C4A",
"1+	c #7E6141",
"2+	c #644C33",
"3+	c #3D2919",
"4+	c #584127",
"5+	c #513B28",
"6+	c #1B0B07",
"7+	c #523D29",
"8+	c #674F35",
"9+	c #6F5639",
"0+	c #553E25",
"a+	c #533C23",
"b+	c #674E32",
"c+	c #695033",
"d+	c #503921",
"e+	c #654C2F",
"f+	c #664D32",
"g+	c #533B23",
"h+	c #735B41",
"i+	c #765D3F",
"j+	c #564026",
"k+	c #453021",
"l+	c #352316",
"m+	c #3E6166",
"n+	c #02CFF8",
"o+	c #2199C3",
"p+	c #317D9E",
"q+	c #645441",
"r+	c #6E553B",
"s+	c #685036",
"t+	c #58412A",
"u+	c #57402A",
"v+	c #5D462F",
"w+	c #5D472F",
"x+	c #644E34",
"y+	c #614C37",
"z+	c #634C33",
"A+	c #4A3620",
"B+	c #254A5D",
"C+	c #3F8F9C",
"D+	c #9DD2DB",
"  . . . . . + . .     . . . + +   . . . . . + . .     . . . + + ",
"  . . . . . +   @ # # @   . + +   . . . . . +   @ # # @   . + + ",
"@   . . . + @ # . . . . @     @ @   . . . + @ # . . . . @     @ ",
". @ @     @ + + + . . .       . . @ @     @ + + + . . .       . ",
". . .     + + + + + + + @ + . . . . .     + + + + + + + @ + . . ",
"+ . + +   . . . . . . @ + + . . + . + +   . . . . . . @ + + . . ",
"+ + +     . . . . @ # @ + + + + + + +     . . . . @ # @ + + + + ",
".     @ . . . @ # # @ + . + + + .     @ . . . @ # # @ + . + + + ",
"    @ .     @ @ . . . . + + + .     @ .     @ @ . . . . + + + . ",
"@ @ @     + . . . . . + + @     @ @ @     + . . . . . + + @     ",
". . @ @ + . . $ % & * = - ; > > > > > > > , ' ) ! ~ {   @   . . ",
". . @ # @ @ ] ^ / ( _ : : < : [ : _ } : : | 1 2 3 4 5 6   . . . ",
". @ # @ 7 8 9 0 a b b b c d e f g b h i j k l m n 4 o p q + + . ",
"@ # + r s t u v w x y z A B C D E F G H I J K L M 4 N O O P + + ",
"@   Q R : S T U w V W X Y Z C ` W X  ...+.@.K #.$.: %.&.&.P . + ",
"  *.=.-.;.>.,.'.).!.~.{.].^./.!.(._.G i :.<.[.}.|.2 1.2.2.3.. + ",
"  4.5.6.7.8.9.0.a.V W W b.c.d.e.8.W f.g.h.i.[.4 j.k.1.l.m.n.+ + ",
"  4.o.p.q.r.s.t.).!._._.u.v.d.!.(._.T w.x.y.z.A.B.C.D.E.O n.+ + ",
"@   F.G.H.I.J.B K.L.M.N.Y O.2 h.P.Q.B R.+.S.T.2 U.V.W.X.m.Y.  @ ",
". @ @ Z.`.H. +.+++@+#+$+%+v.&+*+=+-+G ;+>+8 K ,+'+4 )+!+!+~+  . ",
". . .   {+/ : ]+^+/+(+_+:+<+[+}+_+_+|+1+@+2+K ,+3+4+5+2.6++ . . ",
"+ . + +   % 7+8+9+0+a+a+b+c+d+a+a+a+e+f+g+h+i+j+k+: l+m+n++ . . ",
"+ + +     . . o+p+q+r+k s+2+t+u+u+v+w+x+x+y+z+A+B+C+D+@ + + + + ",
".     @ . . . @ # # @ + . + + + .     @ . . . @ # # @ + . + + + ",
"    @ .     @ @ . . . . + + + .     @ .     @ @ . . . . + + + . ",
"@ @ @     + . . . . . + + @     @ @ @     + . . . . . + + @     ",
". . @ @ + . . . . . .   @   . . . . @ @ + . . . . . .   @   . . ",
". . @ # @ @     @ @ @ @   . . . . . @ # @ @     @ @ @ @   . . . ",
". @ # @ . . .     @ @   + + + . . @ # @ . . .     @ @   + + + . ",
"@ # + + . . . . + @   . . . + + @ # + + . . . . + @   . . . + + ",
"@   . + + + + + +   . . . . . + @   . + + + + + +   . . . . . + ",
"    . . . + + . .   . . . . . +     . . . + + . .   . . . . . + "};
