/* XPM */
static char *d8f6506d761540dbde437f4b32e7f32eaahq14wBostr2bNQ[] = {
/* columns rows colors chars-per-pixel */
"32 32 181 2 ",
"   c #010202",
".  c #080003",
"X  c #000308",
"o  c #1A0F08",
"O  c #1A1808",
"+  c #251400",
"@  c #2B1503",
"#  c #2F1806",
"$  c #21170E",
"%  c #251A0F",
"&  c #301000",
"*  c #351A01",
"=  c #3C1B02",
"-  c #2F290F",
";  c #25200D",
":  c #3A2102",
">  c #32260E",
",  c #212315",
"<  c #2F2A15",
"1  c #2E2818",
"2  c #2B2517",
"3  c #342613",
"4  c #342915",
"5  c #342B1C",
"6  c #3B2A17",
"7  c #3A3215",
"8  c #3B321B",
"9  c #3F2F20",
"0  c #363020",
"q  c #3E3023",
"w  c #411D03",
"e  c #472604",
"r  c #4B2402",
"t  c #422E1D",
"y  c #40321A",
"u  c #4B3A1E",
"i  c #6C3501",
"p  c #6E3A00",
"a  c #653604",
"s  c #703400",
"d  c #703901",
"f  c #4F3E20",
"g  c #4A3D2C",
"h  c #553D2A",
"j  c #52431A",
"k  c #7F4400",
"l  c #7A4803",
"z  c #564522",
"x  c #5B4425",
"c  c #5F452C",
"v  c #624A28",
"b  c #6A562D",
"n  c #67582D",
"m  c #65512E",
"M  c #6D5730",
"N  c #7A592C",
"B  c #7A6732",
"V  c #863F00",
"C  c #844302",
"Z  c #8A4301",
"A  c #8D4A02",
"S  c #85410B",
"D  c #834909",
"F  c #934703",
"G  c #944C03",
"H  c #9B4D02",
"J  c #975000",
"K  c #9B5204",
"L  c #97530A",
"P  c #BB5E03",
"I  c #BB6204",
"U  c #BC6409",
"Y  c #9B773C",
"T  c #C15F00",
"R  c #C26103",
"E  c #CD6A04",
"W  c #C76905",
"Q  c #D36C00",
"!  c #DC6E01",
"~  c #D26604",
"^  c #DC7202",
"/  c #D57504",
"(  c #E16E01",
")  c #E07202",
"_  c #8C6E4A",
"`  c #8A714E",
"'  c #8A7054",
"]  c #987845",
"[  c #A07743",
"{  c #AE8E47",
"}  c #B3894C",
"|  c #BF9F6E",
" . c #BFA16F",
".. c #BDA371",
"X. c #C19F6F",
"o. c #CA9F68",
"O. c #C2A36C",
"+. c #C4A274",
"@. c #CBA274",
"#. c #4F7A9E",
"$. c #537A9F",
"%. c #577A9C",
"&. c #4E7BA4",
"*. c #4F77AA",
"=. c #4E7BAB",
"-. c #5476A4",
";. c #527BA5",
":. c #597BA5",
">. c #547CAA",
",. c #597CAC",
"<. c #5B7CB1",
"1. c #5A829C",
"2. c #5480A4",
"3. c #5D85A5",
"4. c #5583AC",
"5. c #5C83AD",
"6. c #558AAD",
"7. c #5B89AC",
"8. c #5685B3",
"9. c #5E85B1",
"0. c #5C8AB2",
"q. c #5D86B9",
"w. c #5B89B6",
"e. c #6184AC",
"r. c #6386A7",
"t. c #6185B2",
"y. c #6384BA",
"u. c #76AEE6",
"i. c #79ADE5",
"p. c #75AEEC",
"a. c #79AEEC",
"s. c #6DB3EE",
"d. c #71B1E6",
"f. c #78B1E5",
"g. c #74B1EC",
"h. c #7AB2EB",
"j. c #79AFF0",
"k. c #7EAEFA",
"l. c #6DB1F2",
"z. c #76B3F3",
"x. c #7AB4F2",
"c. c #7DB9F5",
"v. c #7DB9F5",
"b. c #79B7F8",
"n. c #75C3EA",
"m. c #7FC1FD",
"M. c #A19DB4",
"N. c #9EA7B3",
"B. c #A4A4AC",
"V. c #AAA5AE",
"C. c #A5AAAE",
"Z. c #A4A5B2",
"A. c #A5A9BC",
"S. c #A5A7B9",
"D. c #83BAEE",
"F. c #82B5EE",
"G. c #80B4F2",
"H. c #84BCF5",
"J. c #83BFFB",
"K. c #82BEFA",
"L. c #81BEF9",
"P. c #84BFFB",
"I. c #86BEF9",
"U. c #84BEFD",
"Y. c #84BDFC",
"T. c #89BEFD",
"R. c #8BBEF7",
"E. c #90BAFF",
"W. c #85C2F5",
"Q. c #85C1FB",
"!. c #84C0FC",
"~. c #85C0FC",
"^. c #85C1FD",
"/. c #85C1FE",
"(. c #85C1FC",
"). c #8AC1FC",
"_. c #E7EEFE",
"`. c #EBEDFC",
"'. c #F4EAFD",
"]. c #F2EDF4",
"[. c #ECF1FE",
/* pixels */
";.5.9.5.9.9.5.9.9.9.9.5.;.;.;.;.>.;.;.;.;.-.4.9.9.9.9.9.5.9.9.5.",
"p.c.J.!.(.(.(.(.J.J.J.J.g.g.g.p.s.i.u.d.h.z.x.R.J.J.(.I.(.(.(.(.",
";.5.5.5.9.5.5.9.9.0.0.9.>.;.;.;.=.<.=.=.;.-.4.5.9.9.9.q.9.9.9.9.",
"p.v.I.Q.Q.Q.Q.(.I.I.H.J.h.h.p.g.i.d.h.d.g.a.c.(.Y.Y.Y.Y.Y.Y.Y.Y.",
">.5.9.9.5.9.9.9.9.9.0.9.=.>.;.;.;.;.;.=.$.,.4.9.5.t.5.9.9.9.9.t.",
"p.v.I.(.).(.Y.Y.J.Q.J.J.g.g.g.p.a.f.p.z.a.s.z.: (.(.(.Y.(.(.Y.(.",
"-.5.t.5.9.9.9.t.9.t.9.9.;.;.;.;.;.&.;.;.*.%.@ & t.t.5.t.t.9.9.t.",
"p.c.J.(.Y.I.J.J.(.(.I.I.z.h.g.p.j.s.g.f.z.= / = J.J.J.J.J.J.J.J.",
";.5.9.9.5.9.5.5.8.e.e.9.2.;.>.>.  2.&.>.+ K G @ 5.q.q.t.5.9.9.y.",
"g.c.J.J.J.Q.(.J.W.J.v.J.x.h.p.  }   k.w ^ E T i L.Q.J.H.!.v.L.L.",
"5.4.;.;.;.;.;.;.;.&.<.>.>.7.9.  t X @ F F F l e ;.$.;.>.&.;.2.;.",
"I.x.a.p.p.a.g.a.z.g.u.x.!.!.I.. > w ! Q ^ W I i g.z.p.j.a.p.z.f.",
"9.>.;.;.;.;.;.>.-.;.,.$.8.5.q.. @ J F H Z F Z r ;.;.;.;.;.#.;.4.",
"Q.v.g.g.g.p.g.p.h.d.g.g.H./.L.: ^ ^ ( / E I P a g.u.f.g.l.g.i.u.",
"5.,.;.;.>.;.;.>.&.;.&.:.  X + K H L K A A C C r X .   %.-.S.M.:.",
"(.x.g.g.p.p.g.p.z.  .   Y w / ( ^ ! ~ E P R R a Y [ ]   h.s.h.s.",
"t.1.-.;.;.&.:.    b M m * H H H A A D C C Z C e , $ o n   >.&.-.",
"m.z.z.h.i.X   { { $ < w Q ) E W R I P U H I I i 3 v z { X '.`.a.",
"9.2.&.#.. ' ` o o 8 + K F S V Z S d i d s Z C r 2 f h B   #.;.&.",
"R.v.h.u.X > 3 O.O.w ) H p : * * e * = w a L U w z N b +.. [.h.g.",
"<.:.2.8.;.X   % 5 _ ' @ , y y g 9 8 j u # r k + 7 g h `   4.2.>.",
"g.n.(.J.I.).`.$ 6 z Y B @.O.+.O.O. .O.+. .O.O...+.o.O.4   '.[./.",
"<.<.3.t.6.3.5.S.B.O 5 x x x 7 8 6 6 7 8 0 6 t 8 t y % Z.A.N.5.9.",
"p.D.Y.Y.Y.T.(./.`._.'.1 4 4 < 4 4 5 1 > 4 4 3 4 3 O `.  T.Q.H./.",
";.,.5.9.9.9.9.9.e.  C.B.C.B.V.Z.B.V.Z.B.Z.C.B.B.B.B.X r.e.8.e.7.",
"g.v.J.(.(.(./.(.I.T.Y.[.].X     X   X [.`.].      X Y.(.`.`.Y.T.",
";.5.9.9.9.9.9.9.7.,.w.3.>.-.>.*.;.;.;.=.%.S.S.5.3.e.q.<.5.Z.N.7.",
"p.v.Y.Y.Y.(.Y.J.Y.).(.I.j.h.p.a.d.p.g.p.g.p.x.).).Y.T.U.).R.W.Y.",
";.5.t.9.9.9.9.9.0.9.9.w.&.;.;.$.$.:.>.;.;.;.4.e.9.7.7.0.5.9.q.7.",
"p.v.Y.(.Y.(.(.).Y.W.I.v.z.g.g.p.p.g.p.p.d.g.h.).T.J.J.(.Y.).H.W.",
";.,.e.t.t.5.5.5.t.5.t.7.;.;.&.2.>.-.;.;.-.;.4.9.7.,.9.q.9.9.6.y.",
"L.v.x.h.z.b.x.c.x.b.x.x.G.L.v.L.G.b.L.Y.c.H.x.c.b.h.G.h.z.c.x.h."
};
