/* XPM */
static char *_63f0f151c404657e2fbd999249e0144KxSNIjfeHfIAev7L[] = {
/* columns rows colors chars-per-pixel */
"32 32 163 2 ",
"   c #020102",
".  c #010309",
"X  c #1D0F02",
"o  c #181003",
"O  c #12110F",
"+  c #1C1F0A",
"@  c #280F08",
"#  c #251504",
"$  c #2D1202",
"%  c #251807",
"&  c #23170B",
"*  c #241E0C",
"=  c #321400",
"-  c #3B1D01",
";  c #3C1B08",
":  c #201710",
">  c #241D13",
",  c #331D10",
"<  c #342C0B",
"1  c #382A07",
"2  c #2F2B12",
"3  c #342B14",
"4  c #32291A",
"5  c #3B2D1C",
"6  c #3B2719",
"7  c #3A3516",
"8  c #3C341C",
"9  c #3E3E24",
"0  c #421D03",
"q  c #492100",
"w  c #522101",
"e  c #432F17",
"r  c #472C1E",
"t  c #42311C",
"y  c #4F3A1C",
"u  c #523E1F",
"i  c #533D16",
"p  c #643500",
"a  c #693404",
"s  c #663902",
"d  c #6B3803",
"f  c #683309",
"g  c #733701",
"h  c #433322",
"j  c #4D3D26",
"k  c #543C24",
"l  c #474016",
"z  c #4C471F",
"x  c #59481C",
"c  c #4A4224",
"v  c #574423",
"b  c #5D4725",
"n  c #5A4824",
"m  c #554528",
"M  c #5D4A29",
"N  c #59452C",
"B  c #634923",
"V  c #614629",
"C  c #60492A",
"Z  c #6E5827",
"A  c #68572C",
"S  c #66592D",
"D  c #685929",
"F  c #725D2D",
"G  c #6E5A37",
"H  c #735A31",
"J  c #7E5E38",
"K  c #834303",
"L  c #854901",
"P  c #8F4A05",
"I  c #9A5303",
"U  c #BD6102",
"Y  c #846A39",
"T  c #C56A01",
"R  c #C96903",
"E  c #D96F02",
"W  c #D97503",
"Q  c #E46F05",
"!  c #856E4F",
"~  c #81714D",
"^  c #967740",
"/  c #90704A",
"(  c #846F52",
")  c #896E54",
"_  c #8B6F59",
"`  c #B68F4E",
"'  c #BD9F6B",
"]  c #BDA26D",
"[  c #C79F6C",
"{  c #C59F72",
"}  c #C5A167",
"|  c #C1A56B",
" . c #C2A273",
".. c #4E7C9F",
"X. c #56769E",
"o. c #537A9D",
"O. c #5B7D96",
"+. c #4D7CA5",
"@. c #4C7DAA",
"#. c #5176A3",
"$. c #537BA5",
"%. c #587AA2",
"&. c #537CAA",
"*. c #5A7FAA",
"=. c #537CB3",
"-. c #4681A1",
";. c #5782A5",
":. c #5D82A6",
">. c #5681AB",
",. c #5C83AD",
"<. c #5A88AF",
"1. c #5686B4",
"2. c #5E85B1",
"3. c #5B89B2",
"4. c #5C88BA",
"5. c #5A81BC",
"6. c #6583A7",
"7. c #6184AC",
"8. c #6884A9",
"9. c #6185B1",
"0. c #6188B1",
"q. c #6FADE8",
"w. c #75AEE6",
"e. c #79ACE4",
"r. c #75AEEB",
"t. c #7BADEB",
"y. c #75B1E7",
"u. c #7EB1E6",
"i. c #74B1EC",
"p. c #7AB2EC",
"a. c #78B9EF",
"s. c #74AFF3",
"d. c #7AAEF1",
"f. c #79AFF9",
"g. c #74B3F2",
"h. c #7BB5F2",
"j. c #7DB9F5",
"k. c #7DBDFE",
"l. c #75B1FA",
"z. c #7DC0F4",
"x. c #9FA5B3",
"c. c #99AAB2",
"v. c #A4A5AB",
"b. c #A9A6AA",
"n. c #A4A6B3",
"m. c #ABA7B3",
"M. c #82B9EF",
"N. c #81B6F6",
"B. c #84BCF5",
"V. c #8BBDF6",
"C. c #83BEFB",
"Z. c #89BDFD",
"A. c #81C3F7",
"S. c #8DC0F7",
"D. c #84C0FC",
"F. c #89C1FB",
"G. c #EDECF7",
"H. c #E6EEFD",
"J. c #EDEDFC",
"K. c #F0EEFE",
"L. c #E5F0FF",
"P. c #E9F0FF",
"I. c #F3F0F7",
/* pixels */
"$.,.,.2.7.2.,.2.3.9.2.2.&.+.$.$...$.@.$.o.+.>.9.2.2.2.2.2.2.2.2.",
"r.j.D.C.D.D.D.D.C.F.C.Z.p.g.r.r.i.i.d.r.g.i.h.D.D.C.D.C.D.D.D.D.",
"$.,.,.,.,.,.2.2.3.3.>.,.$.@.#.%.$.o.#.&.#.$.$.2.2.9.2.9.2.9.2.2.",
"r.j.D.D.F.D.D.D.D.C.F.B.p.r.s.s.w.g.y.y.g.g.h.F.C.C.C.C.C.C.C.C.",
"&.,.2.,.,.2.2.9.2.:.3.,.@.>.+.#.=.X.+.;.#.+.*.*.2.2.9.2.9.9.2.2.",
"r.j.C.D.D.D.D.D.D.F.C.D.i.g.e.y.r.p.g.i.i.r.j.C.D.D.D.C.C.D.D.D.",
"$.*.9.9.,.9.,.9.2.2.1.4.@.%.$.%.% o.%.o.+.o.@.<.9.9.2.2.9.2.9.9.",
"i.N.C.D.D.D.C.C.Z.C.F.z.p.y.e., -   r.l.r.y.B.B.C.C.D.C.C.C.C.C.",
"$.,.2.,.2.2.2.2.<.:.5.<.o.&.# g $   %.$.-.$.&.7.,.2.2.2.<.2.2.,.",
"h.j.k.C.B.B.k.N.C.B.C.k.a.r.a T -   j.B.N.N.p.k.j.C.N.C.C.B.j.C.",
"2.,.$.$.$.&.$.$.+.&...O.1.$ L q 3 y   4.:.9.*.+.$.$.$.$.$.$.&.$.",
"C.p.r.r.p.r.r.r.g.r.r.g.; f T s 2 i Y   D.C.z.r.i.i.i.i.i.i.i.i.",
"2.&.&.&.&.#.&.&.+.o.$.$.= K P $ +   h J   9.>.&.&.&.&.&.&.$.&.&.",
"C.j.i.i.i.i.i.i.i.t.r.- a W U 0 6   S < `   N.r.i.i.r.i.i.i.i.r.",
",.>.$.$.$.$.&.$.#.@.&.# K I w   +   3 o )   ;.+.#.$.$.$.$.$.#.$.",
"D.h.p.i.i.i.t.i.i.t.  p Q R -   4   v S < |   i.i.i.i.i.i.i.i.i.",
",.>.$.$.$.+.$.$.$.v.  K I K $ . >   t < 7 )   v.&.#.&.#.$.+.%.+.",
"D.j.i.i.i.i.i.i.i.J.  U W a H H F F F F D  .  J.p.i.g.i.i.g.i.r.",
",.>.#.$.&.+.$.$.@.X.. I K $ u k k y m y 1 )   o.o.$.&.$.#.$.$.$.",
"B.h.p.r.r.r.p.r.p.t.  W d - 7 8 t h 6 9 & |   r.i.g.r.g.p.i.r.i.",
">.>.>.>.>.,.>.>.>.&.  / @ r 8 r t t 5 8 e _   >.&.>.$.>.>.$.>.,.",
"i.j.D.D.D.D.C.D.C.K.  ] B b z M m x b N n {   J.S.C.F.F.D.D.D.D.",
"$.,.2.2.,.9.2.2.v.v.  M ) k c u j k k u ~ X . x.n.0.,.,.,.,.2.2.",
"i.j.C.D.D.C.C.D.K.C.J.v Y |  .} |  . .| 3 + H.V.J.V.D.D.D.D.C.D.",
"$.>.9.2.,.2.2.2.v.,.n.n.5 B V 5 5 t 6 * O m.v.2.n.7.,.2.1.,.4.,.",
"i.N.D.C.D.C.C.D.D.Z.C.P.J.I.L.P.L.G.G.J.K.H.j.C.z.C.D.Z.Z.D.C.F.",
"$.,.9.2.2.2.2.2.,.v.3.:.m.v.  v.  v.. x.v.o.;.n.8.2.1.,.7.7.,.9.",
"i.j.C.C.C.D.D.D.J.H.D.C.G.r.d.J.e.P.t.r.K.w.g.J.H.S.D.D.D.C.F.C.",
"#.2.9.9.2.9.2.,.n.2.7.,.b.@.@.%.%.&.&.o.x.=.:.<.n.7.9.,.4.>.2.2.",
"i.j.C.C.C.C.F.D.C.V.Z.D.g.u.q.t.i.r.q.i.p.e.h.D.C.D.D.F.A.D.D.D.",
"$.*.9.9.9.9.2.2.1.7.1.9.+...,.#.o.$.;.+.&.>.X.9.4.2.2.2.:.7.,.2.",
"B.j.g.r.p.g.p.g.g.u.j.g.N.z.B.k.z.B.N.C.B.z.j.f.p.i.p.g.g.p.g.p."
};
