/* XPM */
static char *_ecadb9507a84400d5ce07fff3cac51aD57utXMDlNNgTNPo[] = {
/* columns rows colors chars-per-pixel */
"32 32 189 2 ",
"   c #170D04",
".  c #120E08",
"X  c #1B1205",
"o  c #16120B",
"O  c #1A140B",
"+  c #1C180B",
"@  c #1E1810",
"#  c #231508",
"$  c #291A09",
"%  c #321D09",
"&  c #271E10",
"*  c #201E1C",
"=  c #2C250E",
"-  c #31210D",
";  c #3B250C",
":  c #2C2215",
">  c #2C2319",
",  c #332514",
"<  c #352A16",
"1  c #3B2B17",
"2  c #352A19",
"3  c #3F3219",
"4  c #292726",
"5  c #2D2924",
"6  c #372E26",
"7  c #39362C",
"8  c #2B323A",
"9  c #343535",
"0  c #37393A",
"q  c #432306",
"w  c #4F2905",
"e  c #442509",
"r  c #562D05",
"t  c #5A2D02",
"y  c #5C3002",
"u  c #583008",
"i  c #472F11",
"p  c #423513",
"a  c #43351B",
"s  c #463A1E",
"d  c #4B3C1E",
"f  c #5C3916",
"g  c #643403",
"h  c #6B3603",
"j  c #653906",
"k  c #6B3902",
"l  c #713702",
"z  c #733C04",
"x  c #793D01",
"c  c #403520",
"v  c #473A21",
"b  c #4B3B23",
"n  c #463C2D",
"m  c #4A3F2C",
"M  c #533B26",
"N  c #513E26",
"B  c #463D31",
"V  c #4A3F32",
"C  c #7D4105",
"Z  c #7A430B",
"A  c #6D4118",
"S  c #75471A",
"D  c #4F4327",
"F  c #4E412C",
"G  c #524124",
"H  c #5B4523",
"J  c #53422A",
"K  c #59462B",
"L  c #5C4A2B",
"P  c #514332",
"I  c #564938",
"U  c #5D5238",
"Y  c #644C25",
"T  c #604528",
"R  c #624E2B",
"E  c #64522E",
"W  c #6A542D",
"Q  c #6A5637",
"!  c #6B5933",
"~  c #735B34",
"^  c #735E38",
"/  c #2F3B47",
"(  c #343C45",
")  c #39434B",
"_  c #4F4842",
"`  c #5D5649",
"'  c #434A55",
"]  c #474B56",
"[  c #4B525B",
"{  c #515356",
"}  c #61544B",
"|  c #796343",
" . c #475866",
".. c #505863",
"X. c #485B71",
"o. c #57606C",
"O. c #59626E",
"+. c #4C647D",
"@. c #566779",
"#. c #65676C",
"$. c #636A74",
"%. c #686D74",
"&. c #78757A",
"*. c #824303",
"=. c #8C4903",
"-. c #894808",
";. c #984C05",
":. c #A65603",
">. c #816A46",
",. c #826C4B",
"<. c #8B734D",
"1. c #967C53",
"2. c #9A7E54",
"3. c #4D6986",
"4. c #4E6E8F",
"5. c #546B83",
"6. c #536E8C",
"7. c #54728F",
"8. c #5B728B",
"9. c #587492",
"0. c #5B7B9B",
"q. c #687789",
"w. c #6E7B8E",
"e. c #7C7A82",
"r. c #667C96",
"t. c #637E9D",
"y. c #5A7EA3",
"u. c #827F81",
"i. c #66809A",
"p. c #778292",
"a. c #5E84AC",
"s. c #5F87B0",
"d. c #5D89B6",
"f. c #5D8BBB",
"g. c #6483A4",
"h. c #6D87A2",
"j. c #6185AB",
"k. c #6588AB",
"l. c #6A8BAC",
"z. c #7E8CA0",
"x. c #638BB3",
"c. c #6C8EB2",
"v. c #638EBC",
"b. c #708EB0",
"n. c #6591BE",
"m. c #6C93BC",
"M. c #7395BA",
"N. c #7A97B9",
"B. c #7B99BC",
"V. c #5F8FC0",
"C. c #5F90C0",
"Z. c #608FC0",
"A. c #6393C5",
"S. c #6A96C4",
"D. c #6E99C5",
"F. c #6496C9",
"G. c #6997C9",
"H. c #6799CC",
"J. c #6B9BCD",
"K. c #7097C3",
"L. c #759BC6",
"P. c #7B9DC4",
"I. c #739ECC",
"U. c #6C9ED1",
"Y. c #719FD1",
"T. c #79A1CC",
"R. c #6EA1D5",
"E. c #6EA2D8",
"W. c #71A2D5",
"Q. c #72A5DB",
"!. c #72A8DF",
"~. c #73A9E1",
"^. c #828287",
"/. c #97949A",
"(. c #99979C",
"). c #8195AF",
"_. c #979CAA",
"`. c #859DBB",
"'. c #A09EA4",
"]. c #ABA6AA",
"[. c #A5AEBE",
"{. c #B1B1BC",
"}. c #84A1C2",
"|. c #8EA6C5",
" X c #81A4CA",
".X c #90A9C9",
"XX c #ABB8CB",
"oX c #B7BAC8",
"OX c #D2D5E5",
/* pixels */
"n.Z.f.f.d.f.f.f.f.f.f.f.A.A.A.S.S.S.S.A.A.A.n.f.d.d.f.d.f.d.d.d.",
"G.G.F.f.f.C.C.f.C.f.n.F.S.J.J.J.J.D.J.J.J.S.G.n.V.V.V.V.V.V.V.V.",
"J.F.F.F.C.F.F.C.n.f.v.G.H.U.U.Y.Y.W.Y.R.Y.Y.H.F.F.C.C.C.C.V.C.F.",
"U.U.H.F.F.F.F.f.d.a.j.v.S.I.Y.R.W.W.W.W.E.R.U.H.F.F.F.F.H.F.C.F.",
"U.U.J.F.F.F.C.f.0. .@.g.c.m.J.R.W.W.W.Q.W.Y.U.S.F.F.V.F.H.F.F.F.",
"J.J.H.F.F.C.A.d.8.V P $.q.l.M.I.Y.W.W.W.R.R.U.J.F.F.F.F.H.F.F.F.",
"J.H.F.F.F.F.n.a.@.M Z S I $.i.M.S.J.I.U.W.Y.U.H.F.F.F.F.F.F.V.F.",
"H.U.F.F.F.F.A.k.@.f :.:.=.T $.r.g.x.A.I.R.R.U.H.F.F.F.F.F.F.F.F.",
"R.H.H.F.F.F.n.k.$.f -.=.=.*.H ] ) 3.x.S.J.J.J.J.F.F.H.H.H.H.H.H.",
"H.R.U.H.H.G.S.l.%.A *.*.=.;.-.a L 0 4.x.A.J.U.J.H.H.U.U.U.H.H.H.",
"H.J.J.J.U.J.S.x.$.f k Z k C l # , *  .0.x.S.J.Y.U.U.U.U.U.U.H.U.",
"H.R.U.R.Y.Y.D.l.%.A z j z C C $ & O 7 o.t.v.S.J.U.E.E.U.U.!.U.U.",
"H.R.Y.W.I.S.m.g.#.f h g g h j p = X u b O.t.x.S.U.Y.W.W.!.Q.Q.W.",
"G.U.R.T.M.x.0.+.{ f z k h h j p = # z C M O.t.x.S.U.W.Y.E.U.Q.Y.",
"J.I.T.M.l.+.9 2 : ; y u r r i + O X y x j m ..5.y.n.S.Y.Q.Y.Y.W.",
"J.T.D.c.5.9 Y W Y e y r q q p O + X t x x h i 4 X.8.j.n.G.U.U.Y.",
"I.I.B.r.9 M p a 1 $ = = - ; < o O   % w r r e $ 5 0 X.7.s.G.J.R.",
"Y.I.|.w.5 ~ K s < : : : s G a o @ . & - - ; , < W ! 7 / 5.x.D.R.",
"J.I.N.q.5 Q R N 1 2 2 < d G s o o . : < < d s a b D U I ) y.G.J.",
"I.L.N.w.7 ,.^ Y G b s 3 H Y J # O O c v s E W ^ <.>.b 7 / y.S.J.",
"U.L.B.q.5 Q ! W R K K N H E E F N N P K K | >.| K 6 > 8 3.s.A.J.",
"Y.T..Xz.9 J <.2.2.1.1.1.1.2.2.1.2.2.2.2.1.>.~ K n 0 $.9.y.f.A.G.",
"Y.I. X).q.#.` J D D b J M b M M b F J E E R U ` ^.p.h.x.v.A.A.G.",
"Y.I.L.N.t.[ e._ B B F n B B B B F B V F V } ].{.XX`.m.n.A.A.A.F.",
"W.I.I.P.b.5...#.&.&.u.(.'.(.u.u.e.e.u.u./.'._.w.b.N.S.S.F.F.F.Z.",
"W.T.T. X Xl.5.( 8 8 ] oXOXoXo.' ' ' ] O.[.XX}.c.m.S.F.F.A.F.F.F.",
"Y.T.T.P.L.m.a.4.4.6.r.`..X`.t.6.6.3.6.t.N. XL.K.D.F.F.A.A.A.F.A.",
"Y.Y.I.I.D.G.v.f.y.c.K.L.P.L.K.K.v.v.S.K.K.I.J.J.G.G.F.A.A.A.F.F.",
"U.J.U.J.G.G.A.Z.F.A.G.J.Y.Y.Y.U.K.J.U.Y.U.U.U.J.H.H.H.C.F.F.F.F.",
"Y.U.U.H.G.H.J.U.H.H.U.U.Y.U.Y.Y.Y.Y.Y.Y.U.U.U.U.H.H.H.H.H.H.H.U.",
"U.Q.U.U.E.U.U.E.E.E.E.U.!.!.Q.Q.Q.Q.~.Q.!.E.!.E.E.E.E.E.U.U.E.E.",
"~.~.~.!.!.~.~.~.~.~.~.!.~.~.~.~.~.~.~.~.!.!.!.!.!.!.!.~.~.!.!.!."
};
