/* XPM */
static char * boat_down_xpm[] = {
"32 32 255 2",
"  	c #19E0FF",
". 	c #00C8FF",
"+ 	c #00D5FF",
"@ 	c #67E9FF",
"# 	c #B7F4FF",
"$ 	c #179BB1",
"% 	c #372414",
"& 	c #45321E",
"* 	c #297594",
"= 	c #0E8AB1",
"- 	c #1A7D8E",
"; 	c #48351B",
"> 	c #47341B",
", 	c #533D24",
"' 	c #4A371E",
") 	c #49361D",
"! 	c #1B0B07",
"~ 	c #64E2F8",
"{ 	c #126479",
"] 	c #48341B",
"^ 	c #553E27",
"/ 	c #422E19",
"( 	c #49341E",
"_ 	c #315966",
": 	c #0FBBEE",
"< 	c #2B1811",
"[ 	c #412E19",
"} 	c #422F1B",
"| 	c #4B3621",
"1 	c #46311D",
"2 	c #432F1B",
"3 	c #45311D",
"4 	c #4C3824",
"5 	c #513B28",
"6 	c #352316",
"7 	c #07ACDB",
"8 	c #99CCD5",
"9 	c #4D391E",
"0 	c #594228",
"a 	c #4B371D",
"b 	c #46321B",
"c 	c #46311B",
"d 	c #4A361D",
"e 	c #584127",
"f 	c #107A9C",
"g 	c #35737E",
"h 	c #2E1D0F",
"i 	c #432F21",
"j 	c #483424",
"k 	c #4C3727",
"l 	c #372515",
"m 	c #312111",
"n 	c #392317",
"o 	c #412C1F",
"p 	c #443021",
"q 	c #3D2919",
"r 	c #453021",
"s 	c #254A5D",
"t 	c #342213",
"u 	c #523D23",
"v 	c #553F25",
"w 	c #523D24",
"x 	c #503B21",
"y 	c #48341C",
"z 	c #513C21",
"A 	c #564026",
"B 	c #4A3620",
"C 	c #402E1D",
"D 	c #664E32",
"E 	c #664F32",
"F 	c #674F32",
"G 	c #6E5539",
"H 	c #765C3E",
"I 	c #6C5436",
"J 	c #765D3F",
"K 	c #634C33",
"L 	c #473627",
"M 	c #765D43",
"N 	c #6A5238",
"O 	c #624A32",
"P 	c #66513C",
"Q 	c #6E573E",
"R 	c #6F583F",
"S 	c #68523C",
"T 	c #67513C",
"U 	c #674F36",
"V 	c #644C33",
"W 	c #735B41",
"X 	c #614C37",
"Y 	c #4A3725",
"Z 	c #412911",
"` 	c #2A1508",
" .	c #311D0D",
"..	c #2F1908",
"+.	c #281307",
"@.	c #35210E",
"#.	c #33200E",
"$.	c #3D270F",
"%.	c #533B23",
"&.	c #644E34",
"*.	c #7C5F40",
"=.	c #755A39",
"-.	c #775C3A",
";.	c #7D6142",
">.	c #856949",
",.	c #826647",
"'.	c #836848",
").	c #7E6141",
"!.	c #664D32",
"~.	c #5C462A",
"{.	c #907250",
"].	c #927553",
"^.	c #937755",
"/.	c #967856",
"(.	c #957755",
"_.	c #917452",
":.	c #896C4A",
"<.	c #654C2F",
"[.	c #5D472F",
"}.	c #604A2C",
"|.	c #4C351C",
"1.	c #3F2811",
"2.	c #321D08",
"3.	c #472E16",
"4.	c #311B08",
"5.	c #3A230E",
"6.	c #432B14",
"7.	c #4F391E",
"8.	c #533C23",
"9.	c #5D462F",
"0.	c #472E17",
"a.	c #3C260E",
"b.	c #412A10",
"c.	c #301A08",
"d.	c #38220B",
"e.	c #3B240E",
"f.	c #57402A",
"g.	c #5E482B",
"h.	c #442C15",
"i.	c #36210C",
"j.	c #271107",
"k.	c #2D1808",
"l.	c #251007",
"m.	c #36200C",
"n.	c #49331A",
"o.	c #37200A",
"p.	c #351E09",
"q.	c #351F09",
"r.	c #422914",
"s.	c #452E18",
"t.	c #4C381D",
"u.	c #503921",
"v.	c #58412A",
"w.	c #453221",
"x.	c #5D472A",
"y.	c #8C6E4D",
"z.	c #8C6F4E",
"A.	c #8F7250",
"B.	c #917351",
"C.	c #8E714F",
"D.	c #8C704F",
"E.	c #8F714F",
"F.	c #695033",
"G.	c #4C3725",
"H.	c #8E7252",
"I.	c #8A6D4D",
"J.	c #8E7353",
"K.	c #8F7453",
"L.	c #8A6F4F",
"M.	c #8A6E4E",
"N.	c #8E7453",
"O.	c #8B6F4E",
"P.	c #674E32",
"Q.	c #685036",
"R.	c #503B28",
"S.	c #3F2812",
"T.	c #452D15",
"U.	c #3A240E",
"V.	c #3F2810",
"W.	c #4D3A27",
"X.	c #3D260F",
"Y.	c #3E280E",
"Z.	c #36200A",
"`.	c #3E280F",
" +	c #4B331A",
".+	c #6E553B",
"++	c #5A5148",
"@+	c #5B442A",
"#+	c #3B250E",
"$+	c #240F07",
"%+	c #271307",
"&+	c #4E381E",
"*+	c #553E25",
"=+	c #635241",
"-+	c #5AC3D6",
";+	c #785E40",
">+	c #4D351E",
",+	c #321C08",
"'+	c #453119",
")+	c #433019",
"!+	c #422D17",
"~+	c #3C2512",
"{+	c #462D18",
"]+	c #6F5639",
"^+	c #317D9E",
"/+	c #15B3E4",
"(+	c #685037",
"_+	c #5A442A",
":+	c #826544",
"<+	c #8B6E4E",
"[+	c #8D714F",
"}+	c #8D7050",
"|+	c #907351",
"1+	c #8C6F4D",
"2+	c #553F26",
"3+	c #674F35",
"4+	c #54B2C3",
"5+	c #331E16",
"6+	c #654D31",
"7+	c #71573B",
"8+	c #987A59",
"9+	c #987B59",
"0+	c #9A7E5B",
"a+	c #967957",
"b+	c #745A39",
"c+	c #523D29",
"d+	c #573F26",
"e+	c #4A331B",
"f+	c #452E16",
"g+	c #422A13",
"h+	c #4B331B",
"i+	c #543D24",
"j+	c #1BA8D6",
"k+	c #299FB5",
"l+	c #6A5237",
"m+	c #4C351D",
"n+	c #402911",
"o+	c #4D371D",
"p+	c #654D32",
"q+	c #41717A",
"r+	c #2CA4C3",
"s+	c #735A3C",
"t+	c #574026",
"u+	c #4D3920",
"v+	c #563F26",
"w+	c #6B5336",
"x+	c #508791",
"y+	c #2595B2",
"z+	c #664E33",
"A+	c #59442A",
"B+	c #685034",
"C+	c #418196",
"D+	c #278BA6",
"E+	c #38474B",
"F+	c #32454B",
"  . . . . . + . .     . . . + +   . . . . . + . .     . . . + + ",
"  . . . . . +   @ # # @   . + +   . . . . . +   @ # # @   . + + ",
"@   . . . + @ # . . . . @ $ $ % & & * = . + @ # . . . . @     @ ",
". @ @     @ + + + . . . - ; > , ' ; ' ) ! ~ + + + . . .       . ",
". . .     + + + + + + { ] ; > , ^ / ( ) , _ + + + + + + @ + . . ",
"+ . + +   . . . . . : < [ } | 1 1 2 3 4 5 6 7 . . . . @ + + . . ",
"+ + +     . . . . @ 8 9 9 9 0 a b c d 9 e 0 f . . @ # @ + + + + ",
".     @ . . . @ # # g h i j k l m n o p q r s @ # # @ + . + + + ",
"    @ .     @ @ . . t a u v w x 9 y a z z A B @ . . . . + + + . ",
"@ @ @     + . . . . C D E F F G G H I F F J K . . . . + + @     ",
". . @ @ + . . . . . L M N O P Q R S T U V W X . . . .   @   . . ",
". . @ # @ @     @ @ Y 0 Z `  ...+.@. .#.$.%.&.  @ @ @ @   . . . ",
". @ # @ . . .     @ Y 0 *.=.-.*.;.>.,.'.).!.&.    @ @   + + + . ",
"@ # + + . . . . + @ Y ~.{.].^.]./.(._.].:.<.[.. + @   . . . + + ",
"@   . + + + + + +   Y }.|.1.2.3.4.3.5.6.7.8.9.+ +   . . . . . + ",
"    . . . + + . .   Y 0 0.a.4.b.c.b.d.e.7.8.f.. .   . . . . . + ",
"  . . . . . + . .   Y g.h.i.j.k.l.k.+.m.n.8.f.. .     . . . + + ",
"  . . . . . +   @ # Y 0 o.p.p.q.r.r.a s.t.u.v.  @ # # @   . + + ",
"@   . . . + @ # . . w.x.y._.z.A.B.C.D.C.E.F.V # . . . . @     @ ",
". @ @     @ + + + . G.0 H.I.J.K.L.M.J.N.O.P.Q.+ + . . .       . ",
". . .     + + + + + R.0 |.S.2.T.4.3.U.V.7.8.N + + + + + @ + . . ",
"+ . + +   . . . . . W.}.|.X.4.Y.4.3.Z.`. +8..+. . . . @ + + . . ",
"+ + +     . . . . @ ++@+|.#+$+k.$+k.%+$.&+*+=+. . @ # @ + + + + ",
".     @ . . . @ # # -+;+>+,+,+'+)+'+!+~+{+]+^+@ # # @ + . + + + ",
"    @ .     @ @ . . /+(+_+:+<+[+}+|+_.1+2+3+4+@ . . . . + + + . ",
"@ @ @     + . . . . . 5+6+7+(.8+9+0+a+b+0 c+. . . . . + + @     ",
". . @ @ + . . . . . .   U d+e+f+c.g+h+i+;+j+. . . . .   @   . . ",
". . @ # @ @     @ @ @ @ k+l+0 m+n+o+i+p+q+@     @ @ @ @   . . . ",
". @ # @ . . .     @ @   + r+s+t+u+v+w+x+. . .     @ @   + + + . ",
"@ # + + . . . . + @   . . . y+z+A+B+C++ . . . . + @   . . . + + ",
"@   . + + + + + +   . . . . . D+E+F+. + + + + + +   . . . . . + ",
"    . . . + + . .   . . . . . +     . . . + + . .   . . . . . + "};
