/* XPM */
static char * boat_right_xpm[] = {
"32 32 253 2",
"  	c #19E0FF",
". 	c #00C8FF",
"+ 	c #00D5FF",
"@ 	c #67E9FF",
"# 	c #B7F4FF",
"$ 	c #07B7DB",
"% 	c #107A9C",
"& 	c #254A5D",
"* 	c #4A3620",
"= 	c #634C33",
"- 	c #614C37",
"; 	c #644E34",
"> 	c #5D472F",
", 	c #5D462F",
"' 	c #57402A",
") 	c #58412A",
"! 	c #644C33",
"~ 	c #685036",
"{ 	c #6A5238",
"] 	c #6E553B",
"^ 	c #635241",
"/ 	c #317D9E",
"( 	c #2199C3",
"_ 	c #64E2F8",
": 	c #315966",
"< 	c #352316",
"[ 	c #594228",
"} 	c #453021",
"| 	c #564026",
"1 	c #765D3F",
"2 	c #735B41",
"3 	c #533B23",
"4 	c #664D32",
"5 	c #654C2F",
"6 	c #533C23",
"7 	c #503921",
"8 	c #695033",
"9 	c #674E32",
"0 	c #553E25",
"a 	c #6F5639",
"b 	c #674F35",
"c 	c #523D29",
"d 	c #1BA8D6",
"e 	c #1B0B07",
"f 	c #533D24",
"g 	c #513B28",
"h 	c #584127",
"i 	c #3D2919",
"j 	c #513C21",
"k 	c #674F32",
"l 	c #3D270F",
"m 	c #7E6141",
"n 	c #896C4A",
"o 	c #4F391E",
"p 	c #49331A",
"q 	c #4C381D",
"r 	c #8F714F",
"s 	c #8B6F4E",
"t 	c #4B331A",
"u 	c #4E381E",
"v 	c #462D18",
"w 	c #553F26",
"x 	c #785E40",
"y 	c #41717A",
"z 	c #7FA9B1",
"A 	c #49361D",
"B 	c #4C3824",
"C 	c #4D391E",
"D 	c #443021",
"E 	c #674F36",
"F 	c #33200E",
"G 	c #836848",
"H 	c #927553",
"I 	c #432B14",
"J 	c #3B240E",
"K 	c #36200C",
"L 	c #452E18",
"M 	c #8E714F",
"N 	c #8E7453",
"O 	c #3F2810",
"P 	c #3E280F",
"Q 	c #3C2512",
"R 	c #8C6F4D",
"S 	c #745A39",
"T 	c #543D24",
"U 	c #654D32",
"V 	c #3B7C91",
"W 	c #297D94",
"X 	c #4A371E",
"Y 	c #49341E",
"Z 	c #45311D",
"` 	c #4A361D",
" .	c #412C1F",
"..	c #4B371D",
"+.	c #6C5436",
"@.	c #67513C",
"#.	c #311D0D",
"$.	c #826647",
"%.	c #917452",
"&.	c #3A230E",
"*.	c #38220B",
"=.	c #281307",
"-.	c #8C704F",
";.	c #8E7353",
">.	c #3A240E",
",.	c #36200A",
"'.	c #271307",
").	c #422D17",
"!.	c #967957",
"~.	c #4B331B",
"{.	c #6B5336",
"].	c #417A96",
"^.	c #45321E",
"/.	c #48351B",
"(.	c #422E19",
"_.	c #432F1B",
":.	c #46311B",
"<.	c #392317",
"[.	c #48341C",
"}.	c #765C3E",
"|.	c #68523C",
"1.	c #35210E",
"2.	c #856949",
"3.	c #957755",
"4.	c #472E16",
"5.	c #412A10",
"6.	c #2D1808",
"7.	c #422914",
"8.	c #8A6E4E",
"9.	c #453119",
"0.	c #907351",
"a.	c #9A7E5B",
"b.	c #422A13",
"c.	c #4D371D",
"d.	c #563F26",
"e.	c #685034",
"f.	c #313E4B",
"g.	c #553E27",
"h.	c #46311D",
"i.	c #46321B",
"j.	c #312111",
"k.	c #6E5539",
"l.	c #6F583F",
"m.	c #7D6142",
"n.	c #967856",
"o.	c #311B08",
"p.	c #301A08",
"q.	c #251007",
"r.	c #917351",
"s.	c #8A6F4F",
"t.	c #240F07",
"u.	c #433019",
"v.	c #8D7050",
"w.	c #987B59",
"x.	c #402911",
"y.	c #4D3920",
"z.	c #59442A",
"A.	c #372414",
"B.	c #372515",
"C.	c #503B21",
"D.	c #6E573E",
"E.	c #2F1908",
"F.	c #7C5F40",
"G.	c #351F09",
"H.	c #8F7250",
"I.	c #8F7453",
"J.	c #452D15",
"K.	c #3E280E",
"L.	c #8D714F",
"M.	c #987A59",
"N.	c #452E16",
"O.	c #4C351D",
"P.	c #574026",
"Q.	c #664E33",
"R.	c #278BA6",
"S.	c #0E8AB1",
"T.	c #47341B",
"U.	c #4B3621",
"V.	c #4C3727",
"W.	c #523D24",
"X.	c #66513C",
"Y.	c #775C3A",
"Z.	c #937755",
"`.	c #321D08",
" +	c #271107",
".+	c #351E09",
"++	c #8C6F4E",
"@+	c #321C08",
"#+	c #8B6E4E",
"$+	c #4A331B",
"%+	c #735A3C",
"&+	c #258CB2",
"*+	c #422F1B",
"=+	c #483424",
"-+	c #553F25",
";+	c #624A32",
">+	c #2A1508",
",+	c #755A39",
"'+	c #3F2811",
")+	c #3C260E",
"!+	c #36210C",
"~+	c #8A6D4D",
"{+	c #3F2812",
"]+	c #3D260F",
"^+	c #3B250E",
"/+	c #826544",
"(+	c #71573B",
"_+	c #573F26",
":+	c #6A5237",
"<+	c #58B3C3",
"[+	c #1A7D8E",
"}+	c #48341B",
"|+	c #412E19",
"1+	c #432F21",
"2+	c #523D23",
"3+	c #664F32",
"4+	c #412911",
"5+	c #907250",
"6+	c #4C351C",
"7+	c #472E17",
"8+	c #442C15",
"9+	c #37200A",
"0+	c #8C6E4D",
"a+	c #8E7252",
"b+	c #4D351E",
"c+	c #5A442A",
"d+	c #654D31",
"e+	c #248EB5",
"f+	c #166979",
"g+	c #2B1811",
"h+	c #2E1D0F",
"i+	c #664E32",
"j+	c #765D43",
"k+	c #5C462A",
"l+	c #604A2C",
"m+	c #5E482B",
"n+	c #5D472A",
"o+	c #5B442A",
"p+	c #685037",
"q+	c #331E16",
"r+	c #0FBBEE",
"s+	c #08A7D5",
"t+	c #14627E",
"u+	c #342213",
"v+	c #402E1D",
"w+	c #473627",
"x+	c #4A3725",
"y+	c #453221",
"z+	c #4C3725",
"A+	c #503B28",
"B+	c #4D3A27",
"C+	c #504A48",
"D+	c #15B3E4",
"  . . . . . + . .     . . . + +   . . . . . + . .     . . . + + ",
"  . . . . . +   @ # # @   . + +   . . . . . +   @ # # @   . + + ",
"@   . . . + @ # . . . . @     @ @   . . . + @ # . . . . @     @ ",
". @ @     @ + + + . . .       . . @ @     @ + + + . . .       . ",
". . .     + + + + + + + @ + . . . . .     + + + + + + + @ + . . ",
"+ . + +   . . . . . . @ + + . . + . + +   . . . . . . @ + + . . ",
"+ + +     . . . . @ # @ + + + + + + +     . . . . @ # @ + + + + ",
".     @ . . . @ # # @ + . + + + .     @ . . . @ # # @ + . + + + ",
"    @ .     @ @ . . . . + + + .     @ .     @ @ . . . . + + + . ",
"@ @ @     $ % & * = - ; ; > , ' ' ) ! ~ { ] ^ / ( . . + + @     ",
". . @ _ : < [ } | 1 2 3 4 5 6 6 6 7 8 9 6 6 0 a b c d   @   . . ",
". . @ e f g h i j k ! l m n o o p q r s o t u v w [ x y   . . . ",
". @ z A A B C D j k E F G H I J K L M N O P l Q R S T U V + + . ",
"@ # W X Y Z `  ...+.@.#.$.%.&.*.=...-.;.>.,.'.).%.!.~.T {.].+ + ",
"@   ^./.(._.:.<.[.}.|.1.2.3.4.5.6.7.M 8.4.4.6.9.0.a.b.c.d.e.f.+ ",
"    ^.X g.h.i.j.C k.l.=.m.n.o.p.q.7.r.s.o.o.t.u.v.w.p.x.y.z.f.+ ",
"  . A.f f h...B.C.k.D.E.F.H 4.5.6.G.H.I.J.K.6.9.L.M.N.O.P.Q.R.+ ",
"  . S.T.T.U.[ V.W.k X.#.Y.Z.`.o. +.+++;.`.o.t.@+#+3.$+[ %+&++ + ",
"@   S././.*+C =+-+k ;+>+,+H '+)+!+.+%.~+{+]+^+@+/+(+_+:+<+    @ ",
". @ @ [+}+|+C 1+2+3+{ 4+F.5+6+7+8+9+0+a+6+6+6+b+c+d+E e+      . ",
". . .   f+g+C h+..i+j+[ [ k+l+[ m+[ n+[ [ l+o+x p+q++ + @ + . . ",
"+ . + +   r+s+t+u+v+w+x+x+x+x+x+x+x+y+z+A+B+C+d D+. . @ + + . . ",
"+ + +     . . . . @ # @ + + + + + + +     . . . . @ # @ + + + + ",
".     @ . . . @ # # @ + . + + + .     @ . . . @ # # @ + . + + + ",
"    @ .     @ @ . . . . + + + .     @ .     @ @ . . . . + + + . ",
"@ @ @     + . . . . . + + @     @ @ @     + . . . . . + + @     ",
". . @ @ + . . . . . .   @   . . . . @ @ + . . . . . .   @   . . ",
". . @ # @ @     @ @ @ @   . . . . . @ # @ @     @ @ @ @   . . . ",
". @ # @ . . .     @ @   + + + . . @ # @ . . .     @ @   + + + . ",
"@ # + + . . . . + @   . . . + + @ # + + . . . . + @   . . . + + ",
"@   . + + + + + +   . . . . . + @   . + + + + + +   . . . . . + ",
"    . . . + + . .   . . . . . +     . . . + + . .   . . . . . + "};
