/* XPM */
static char * boat_up_xpm[] = {
"32 32 255 2",
"  	c #19E0FF",
". 	c #00C8FF",
"+ 	c #00D5FF",
"@ 	c #67E9FF",
"# 	c #B7F4FF",
"$ 	c #31424B",
"% 	c #2B92A6",
"& 	c #438896",
"* 	c #685034",
"= 	c #59442A",
"- 	c #664E33",
"; 	c #2A9CB2",
"> 	c #3D8291",
", 	c #6B5336",
"' 	c #563F26",
") 	c #4D3920",
"! 	c #574026",
"~ 	c #735A3C",
"{ 	c #58B3C3",
"] 	c #2E677A",
"^ 	c #654D32",
"/ 	c #543D24",
"( 	c #4D371D",
"_ 	c #402911",
": 	c #4C351D",
"< 	c #594228",
"[ 	c #6A5237",
"} 	c #299FB5",
"| 	c #1BA8D6",
"1 	c #785E40",
"2 	c #4B331B",
"3 	c #422A13",
"4 	c #301A08",
"5 	c #452E16",
"6 	c #4A331B",
"7 	c #573F26",
"8 	c #674F36",
"9 	c #523D29",
"0 	c #745A39",
"a 	c #967957",
"b 	c #9A7E5B",
"c 	c #987B59",
"d 	c #987A59",
"e 	c #957755",
"f 	c #71573B",
"g 	c #654D31",
"h 	c #331E16",
"i 	c #8EBBC3",
"j 	c #674F35",
"k 	c #553F26",
"l 	c #8C6F4D",
"m 	c #917452",
"n 	c #907351",
"o 	c #8D7050",
"p 	c #8D714F",
"q 	c #8B6E4E",
"r 	c #826544",
"s 	c #5A442A",
"t 	c #685037",
"u 	c #15B3E4",
"v 	c #317D9E",
"w 	c #6F5639",
"x 	c #462D18",
"y 	c #3C2512",
"z 	c #422D17",
"A 	c #453119",
"B 	c #433019",
"C 	c #321C08",
"D 	c #4D351E",
"E 	c #24BCD6",
"F 	c #635241",
"G 	c #553E25",
"H 	c #4E381E",
"I 	c #3D270F",
"J 	c #271307",
"K 	c #2D1808",
"L 	c #240F07",
"M 	c #3B250E",
"N 	c #4C351C",
"O 	c #5B442A",
"P 	c #504C48",
"Q 	c #6E553B",
"R 	c #533C23",
"S 	c #4B331A",
"T 	c #3E280F",
"U 	c #36200A",
"V 	c #472E16",
"W 	c #311B08",
"X 	c #3E280E",
"Y 	c #3D260F",
"Z 	c #604A2C",
"` 	c #4D3A27",
" .	c #6A5238",
"..	c #4F391E",
"+.	c #3F2810",
"@.	c #3A240E",
"#.	c #452D15",
"$.	c #321D08",
"%.	c #3F2812",
"&.	c #503B28",
"*.	c #685036",
"=.	c #674E32",
"-.	c #8B6F4E",
";.	c #8E7453",
">.	c #8E7353",
",.	c #8A6E4E",
"'.	c #8A6F4F",
").	c #8F7453",
"!.	c #8A6D4D",
"~.	c #8E7252",
"{.	c #4C3725",
"].	c #644C33",
"^.	c #695033",
"/.	c #8F714F",
"(.	c #8E714F",
"_.	c #8C704F",
":.	c #917351",
"<.	c #8F7250",
"[.	c #8C6F4E",
"}.	c #8C6E4D",
"|.	c #5D472A",
"1.	c #453221",
"2.	c #58412A",
"3.	c #503921",
"4.	c #4C381D",
"5.	c #452E18",
"6.	c #4B371D",
"7.	c #422914",
"8.	c #351F09",
"9.	c #351E09",
"0.	c #37200A",
"a.	c #4A3725",
"b.	c #57402A",
"c.	c #49331A",
"d.	c #36200C",
"e.	c #281307",
"f.	c #251007",
"g.	c #271107",
"h.	c #36210C",
"i.	c #442C15",
"j.	c #5E482B",
"k.	c #3B240E",
"l.	c #38220B",
"m.	c #412A10",
"n.	c #3C260E",
"o.	c #472E17",
"p.	c #5D462F",
"q.	c #432B14",
"r.	c #3A230E",
"s.	c #3F2811",
"t.	c #5D472F",
"u.	c #654C2F",
"v.	c #896C4A",
"w.	c #927553",
"x.	c #967856",
"y.	c #937755",
"z.	c #907250",
"A.	c #5C462A",
"B.	c #644E34",
"C.	c #664D32",
"D.	c #7E6141",
"E.	c #836848",
"F.	c #826647",
"G.	c #856949",
"H.	c #7D6142",
"I.	c #7C5F40",
"J.	c #775C3A",
"K.	c #755A39",
"L.	c #533B23",
"M.	c #33200E",
"N.	c #311D0D",
"O.	c #35210E",
"P.	c #2F1908",
"Q.	c #2A1508",
"R.	c #412911",
"S.	c #614C37",
"T.	c #735B41",
"U.	c #67513C",
"V.	c #68523C",
"W.	c #6F583F",
"X.	c #6E573E",
"Y.	c #66513C",
"Z.	c #624A32",
"`.	c #765D43",
" +	c #473627",
".+	c #634C33",
"++	c #765D3F",
"@+	c #674F32",
"#+	c #6C5436",
"$+	c #765C3E",
"%+	c #6E5539",
"&+	c #664F32",
"*+	c #664E32",
"=+	c #402E1D",
"-+	c #4A3620",
";+	c #564026",
">+	c #513C21",
",+	c #48341C",
"'+	c #4D391E",
")+	c #503B21",
"!+	c #523D24",
"~+	c #553F25",
"{+	c #523D23",
"]+	c #342213",
"^+	c #254A5D",
"/+	c #453021",
"(+	c #3D2919",
"_+	c #443021",
":+	c #412C1F",
"<+	c #392317",
"[+	c #312111",
"}+	c #372515",
"|+	c #4C3727",
"1+	c #483424",
"2+	c #432F21",
"3+	c #2E1D0F",
"4+	c #176E7E",
"5+	c #107A9C",
"6+	c #584127",
"7+	c #4A361D",
"8+	c #46311B",
"9+	c #46321B",
"0+	c #08B2D5",
"a+	c #07ACDB",
"b+	c #352316",
"c+	c #513B28",
"d+	c #4C3824",
"e+	c #45311D",
"f+	c #432F1B",
"g+	c #46311D",
"h+	c #4B3621",
"i+	c #422F1B",
"j+	c #412E19",
"k+	c #2B1811",
"l+	c #0FBBEE",
"m+	c #3E6166",
"n+	c #533D24",
"o+	c #49361D",
"p+	c #49341E",
"q+	c #422E19",
"r+	c #553E27",
"s+	c #47341B",
"t+	c #48351B",
"u+	c #48341B",
"v+	c #326E79",
"w+	c #64E2F8",
"x+	c #1B0B07",
"y+	c #4A371E",
"z+	c #3B828E",
"A+	c #0E8AB1",
"B+	c #297594",
"C+	c #45321E",
"D+	c #372414",
"E+	c #7FA9B1",
"F+	c #0E93B1",
"  . . . . . + . .     . . . + +   . . . . . + . .     . . . + + ",
"  . . . . . +   @ # # @   . $ $ % . . . . . +   @ # # @   . + + ",
"@   . . . + @ # . . . . @ & * = - ; . . . + @ # . . . . @     @ ",
". @ @     @ + + + . . . > , ' ) ! ~ {     @ + + + . . .       . ",
". . .     + + + + + + ] ^ / ( _ : < [ }   + + + + + + + @ + . . ",
"+ . + +   . . . . . | 1 / 2 3 4 5 6 7 8   . . . . . . @ + + . . ",
"+ + +     . . . . @ 9 < 0 a b c d e f g h . . . . @ # @ + + + + ",
".     @ . . . @ # i j k l m n o p q r s t u . @ # # @ + . + + + ",
"    @ .     @ @ . v w x y z A B A C C D 1 E @ @ . . . . + + + . ",
"@ @ @     + . . . F G H I J K L K L M N O P . . . . . + + @     ",
". . @ @ + . . . . Q R S T U V W X W Y N Z ` . . . . .   @   . . ",
". . @ # @ @     @  .R ..+.@.V W #.$.%.N < &.    @ @ @ @   . . . ",
". @ # @ . . .     *.=.-.;.>.,.'.).>.!.~.< {..     @ @   + + + . ",
"@ # + + . . . . + ].^./.(._.(.:.<.[.m }.|.1.. . + @   . . . + + ",
"@   . + + + + + + 2.3.4.5.6.7.7.8.9.9.0.< a.+ + +   . . . . . + ",
"    . . . + + . . b.R c.d.e.K f.K g.h.i.j.a.+ . .   . . . . . + ",
"  . . . . . + . . b.R ..k.l.m.4 m.W n.o.< a.+ . .     . . . + + ",
"  . . . . . +   @ p.R ..q.r.V W V $.s.N Z a.+   @ # # @   . + + ",
"@   . . . + @ # . t.u.v.w.m e x.w.y.w.z.A.a.@ # . . . . @     @ ",
". @ @     @ + + + B.C.D.E.F.G.H.I.J.K.I.< a.+ + + . . .       . ",
". . .     + + + + B.L.I M.N.O.e.P.N.Q.R.< a.+ + + + + + @ + . . ",
"+ . + +   . . . . S.T.].8 U.V.W.X.Y.Z. .`. +. . . . . @ + + . . ",
"+ + +     . . . . .+++@+@+#+$+%+%+@+@+&+*+=+. . . @ # @ + + + + ",
".     @ . . . @ # -+;+>+>+6.,+'+)+!+~+{+6.]+. @ # # @ + . + + + ",
"    @ .     @ @ . ^+/+(+_+:+<+[+}+|+1+2+3+4+@ @ . . . . + + + . ",
"@ @ @     + . . . 5+< 6+'+7+8+9+6.< '+'+'+0+. . . . . + + @     ",
". . @ @ + . . . . a+b+c+d+e+f+g+g+h+i+j+k+l+. . . . .   @   . . ",
". . @ # @ @     @ @ m+n+o+p+q+r+n+s+t+u+v+@     @ @ @ @   . . . ",
". @ # @ . . .     @ w+x+o+y+t+y+n+s+t+z+. . .     @ @   + + + . ",
"@ # + + . . . . + @   . A+B+C+C+D+E+F++ . . . . + @   . . . + + ",
"@   . + + + + + +   . . . . . + @   . + + + + + +   . . . . . + ",
"    . . . + + . .   . . . . . +     . . . + + . .   . . . . . + "};
