/* XPM */
static char *ezgif_com_crop1681746894[] = {
/* columns rows colors chars-per-pixel */
"32 32 8 1 ",
"  c None",
". c #020202",
"X c #4F667D",
"o c #B97F59",
"O c #D29F70",
"+ c #697E95",
"@ c #7D96AF",
"# c #9FBDD9",
/* pixels */
"                                ",
"                                ",
"                                ",
"                                ",
"                                ",
"                             .. ",
"                           ..O. ",
"          .............. ..OO.  ",
"        ..###@@@@#@++@##.OOO.   ",
"       .####++@###+XX+#++Xo.    ",
"       .###+@#####+X++@+@@.     ",
"        .#+@######@++@+++#.     ",
"         .@##########@@@##.     ",
"         .################.     ",
"        .#############@##.      ",
"        .############@@##.      ",
"  ......#@##########@@##.       ",
" .################@@@##.        ",
"  ..###########@@@@###+.        ",
"    .@++@#@##@@@@###+@@.        ",
"    .+OOX@#@######..@@.         ",
"  ..OOOoX@@@++++@.  ..          ",
"..OOOooX@@@+..@@@.              ",
"OOOoo..X@@@.  ...               ",
"OOoo.  .@@@.                    ",
"oo..   .@@.                     ",
"..     .@@.                     ",
"        ..                      ",
"                                ",
"                                ",
"                                ",
"                                "
};
