/* XPM */
static char *_388adaf712e4038a74c3309c0f104b9fAxP9OolWPMRqMKu[] = {
/* columns rows colors chars-per-pixel */
"32 32 225 2 ",
"   c #781B16",
".  c #9A0C08",
"X  c #9A160C",
"o  c #9A1814",
"O  c #AB1707",
"+  c #B71602",
"@  c #AB1613",
"#  c #9B281C",
"$  c #B02006",
"%  c #B72718",
"&  c #962A28",
"*  c #A32824",
"=  c #A3362A",
"-  c #B83727",
";  c #B53331",
":  c #CF1C10",
">  c #E2180C",
",  c #C92903",
"<  c #D8280C",
"1  c #CA2717",
"2  c #D32E14",
"3  c #D93418",
"4  c #E52D1A",
"5  c #E3331C",
"6  c #EC331B",
"7  c #E53A19",
"8  c #F2381F",
"9  c #C62E22",
"0  c #D12D21",
"q  c #C73A29",
"w  c #D83525",
"e  c #DD3922",
"r  c #CC3E34",
"t  c #E83926",
"y  c #B04634",
"u  c #D3401F",
"i  c #D8452B",
"p  c #C74939",
"a  c #D44333",
"s  c #DB5B37",
"d  c #E94428",
"f  c #F5472D",
"g  c #EC5126",
"h  c #F3542D",
"j  c #E74E38",
"k  c #F84A38",
"l  c #EE5436",
"z  c #E65638",
"x  c #F85739",
"c  c #FD5539",
"v  c #FC623B",
"b  c #965850",
"n  c #AB4B4B",
"m  c #B15145",
"M  c #AA5654",
"N  c #B65453",
"B  c #9D6446",
"V  c #A86D5D",
"C  c #B9645B",
"Z  c #B05F6A",
"A  c #996E6A",
"S  c #A46964",
"D  c #B96966",
"F  c #B2746F",
"G  c #CE4E4C",
"H  c #D74D4A",
"J  c #CB574B",
"K  c #DB5644",
"L  c #CB5353",
"P  c #D85551",
"I  c #E85A4A",
"U  c #F85644",
"Y  c #FC5A43",
"T  c #ED4E53",
"R  c #F45951",
"E  c #CA6950",
"W  c #C5685A",
"Q  c #D8685C",
"!  c #EA684F",
"~  c #FA624A",
"^  c #F66852",
"/  c #FE645A",
"(  c #F37058",
")  c #D25F65",
"_  c #C87674",
"`  c #D17573",
"'  c #E77668",
"]  c #E37274",
"[  c #BA847A",
"{  c #D68575",
"}  c #D28D77",
"|  c #9A7F85",
" . c #A77885",
".. c #CA7C8B",
"X. c #7DA0C5",
"o. c #00C8FF",
"O. c #0CC8FF",
"+. c #16C8FF",
"@. c #1CC9FF",
"#. c #08D5FF",
"$. c #14D5FF",
"%. c #1CD5FF",
"&. c #22C9FF",
"*. c #2CC9FF",
"=. c #33CAFF",
"-. c #3DCBFF",
";. c #25D6FF",
":. c #2CD6FF",
">. c #33D6FF",
",. c #3DD7FF",
"<. c #1BE0FF",
"1. c #24E0FF",
"2. c #2DE0FF",
"3. c #37E1FF",
"4. c #42CBFE",
"5. c #4CCCFE",
"6. c #53CDFE",
"7. c #5CCEFE",
"8. c #48D9FD",
"9. c #58D5FD",
"0. c #54D9FD",
"q. c #5BD9FF",
"w. c #70CDE8",
"e. c #63CDFB",
"r. c #6BCEFD",
"t. c #65D3FC",
"y. c #6CD1FD",
"u. c #65DAFD",
"i. c #6BDBFE",
"p. c #77D6F7",
"a. c #73D3FD",
"s. c #7BD4FC",
"d. c #74DBFE",
"f. c #7DDCFC",
"g. c #45E1FF",
"h. c #52E2FE",
"j. c #5BE1FE",
"k. c #65E3FE",
"l. c #68E6FE",
"z. c #6BE9FF",
"x. c #73E4FE",
"c. c #7CE4FC",
"v. c #73EAFF",
"b. c #7AEAFF",
"n. c #B78487",
"m. c #B89797",
"M. c #B59993",
"N. c #B7A69E",
"B. c #9197AA",
"V. c #A49CB8",
"C. c #AFAEAB",
"Z. c #BBABA7",
"A. c #B8B9B4",
"S. c #C68A83",
"D. c #CF8E8F",
"F. c #D59B98",
"G. c #E9958D",
"H. c #F59E99",
"J. c #DCA098",
"K. c #E6A891",
"L. c #C7A9A5",
"P. c #D6AFAD",
"I. c #C8B3B4",
"U. c #E7AAA1",
"Y. c #FAA5A6",
"T. c #EEB6AE",
"R. c #E6BCB6",
"E. c #EAC6BD",
"W. c #FCC4BA",
"Q. c #BBB9D2",
"!. c #CABCD2",
"~. c #ECB8C4",
"^. c #BCD5D1",
"/. c #94CBEF",
"(. c #84CEF5",
"). c #89CFF8",
"_. c #83D4FC",
"`. c #87D9F8",
"'. c #84DCFC",
"]. c #99D6F8",
"[. c #92DAFC",
"{. c #9CDBFC",
"}. c #A7D1EE",
"|. c #B6DAE6",
" X c #A4DAF7",
".X c #B7DBF5",
"XX c #89E6FB",
"oX c #84EAFE",
"OX c #9EE5F6",
"+X c #94E3FC",
"@X c #9CE3FB",
"#X c #98EAFB",
"$X c #B7E1EB",
"%X c #A7E4F7",
"&X c #A3E4FD",
"*X c #A3EAFC",
"=X c #ADECFB",
"-X c #B6E7F9",
";X c #BDEAFC",
":X c #B7F4FF",
">X c #BBF4FF",
",X c #D6CDCE",
"<X c #E8C6C4",
"1X c #F7C8C7",
"2X c #FED7CE",
"3X c #EDD0D4",
"4X c #F9D8D5",
"5X c #FEDBDB",
"6X c #EAE8DB",
"7X c #FBE6DC",
"8X c #CBDCE7",
"9X c #DED8E4",
"0X c #ECDDE0",
"qX c #F3DDE0",
"wX c #C8E6ED",
"eX c #D5E2EC",
"rX c #C5E4F8",
"tX c #D5E8F7",
"yX c #C7F2FC",
"uX c #FEECE5",
"iX c #FAE8EB",
"pX c #FFF4E6",
"aX c #FFF3EB",
"sX c #F0E9F0",
"dX c #FFF8F4",
/* pixels */
"x.t.6.5.&.*.u.*.7.c.h.5.-.4.8.6.0.e.e.e.7.7.d.].a.oXx.-.s.{.f.'.",
"x.+.=.+.o.&.,.c.iX5X<XL.[ W ) ..D.n.n.A.^.8X9X*Xx.:X>Xl.<.6.u.t.",
"v.3.&.+.5.8.%X5XY.] J I ^ ~ ~ / T ! } 3X6X,X,X3X{.4.@.+.z.1.2.b.",
"=.v.v.3.k.9X1XD.L T Y Y h f k k k K G.uXdXdX1XF R.8X].).g.3.3.s.",
"s.-.4.l.[.<X) T / Y f 6 6 8 4 > 4 9 K.7XpXaXH.L P H.8X{.oX0.O.*.",
"c.=.u.rXE.W R k d 5 5 4 < + O O O # K.3XuXW.J ^ U K J.%X%Xi.*.a.",
">.8.&X1XW K k f 5 4 : . o = B B n b M.L.<X` q x v z p Y.4X].d.+X",
"=.l.0XS.H x h , < O o W ~.8Xu.>.5.h.h.`.D.  a d g v R m 1XiX.Xd.",
"h.rX,XZ H k 5 , O # T..X8.q.q.a.@X#X#X_.%XS X i g g x K C uX8Xs.",
"XX|.5XW.] - % % * W.[.$.%.*X@Xc.b.b.*XXX@X%XV.& i l v I p U.9XtX",
"p.Q.0XdX5XF.n   T..Xo.<.b.=X_.=.6.'.v.z.>.7.7.X.n j l ~ a ) 0X].",
"7.,XuXuXpX3XF.P.=Xv.z.z.@X_.7.O._.7.l.>XoXoXj.8.V.P l l Y r R.).",
"=.m.2XpX7X,XC.3Xk.z.z.XXi.:.;.o.[.b.:Xz.5.7.@.c.w.L x k Y - S.'.",
"b.A C { K.S.N.{.,.v.h. Xs.=.:.,.l.:X#.#.O.4.4.7.p.n Y c k p [ %X",
"XXF G 1 u * m.+XXXh.*._.y.-.&.q.z.<.o.%.#.>.8.,.p.M z c k r _ }.",
"8.A a t < * !.wX[.k.&.t.=.=.=.>.*Xx.o.@.s.;.;.5._.W j x U r D }.",
"9.Z r 5 > $ K.;X4.g.3.=.@.*.q.u.:.*.O.&.5.@.>.a.(.D s l l p M }.",
"p.B.H 3 6 + } wX-X>X>Xz.j.5.0.8.<.O.&.=.4.5.+XoXOXS s ^ s - D }.",
"$X| a 3 6 + W sXrXs.*.O.z.2.2.z.z.1.4.O.@.i.=XyXr.L.` J p * F %X",
"}.M.q 6 > 2 ; 3X&X-Xa.*.<.1.;.O.O.z.v.1.x.=Xf.&X.XiX5XY.` S F.).",
"}.I.- e 2 i % ` rX@X.X;.z.;.&.@.@.9.*.k.;Xf.;X`.iXdX4X2X<XN.A.`.",
"f./. .- u u w ; I._.s.v.,.q.-.4.d.4.q.@X-X XwXL.n.uX7XP.Z.C.,X%X",
":.d.F.= 9 3 i u y W.>X=X8.d.0.q.;.@Xu.;X*Xs.Q.M Q ' G.W.L.C.9XOX",
"7.3.@Xb - e , g p y I.'.{.&X0.>.=.j.c.=X XQ.N ! / l ; n b ,X&Xp.",
"x.1.*X1Xo w 2 7 l p } 6X8XOX*Xe.h.l.oX!.` L ! Y f d 9 &  .-Xd.{.",
"#Xv.oXeXY.X 1 3 3 K W.aXdXP.V } { E N G P R / k t t . M 5XrXh.@X",
"s.6.oX#X XF.X $ - W 7XuXaXU.J K s s ( ( ^ U f 4 1 . M 1XtXc.e.].",
"d.[.#X>X%XwXH.#   } 4X3X2X` I Y ~ v z i a w 1 1 @ N ~.:X#X X_.rX",
"a.oX:Xl.=.r.e.R.A m.L.~.D.& 0 w 3 e w 0 0 O X & _ qXsX+X0.u.f.;X",
"*X>X,.8.*.y.e.+.0.C.V.N.b   * . @ O X X o = ` W.iX-Xc.-.y.-Xu.-X",
"=XyX-.;.:.>.:.;.@.XX,XI.m.A b M n M S S.R.2X2XeXi.OXy.{. X{.y.+X",
"&X;XrX%Xa.i.i._.a.{. X X_.).(.(.f.`._.p.p.OXOX9.=.XX7.a.rXrXr.'."
};
