/* XPM */
static char *result[] = {
/* columns rows colors chars-per-pixel */
"32 32 14 1 ",
"  c #089C39",
". c #187329",
"X c #FFE683",
"o c #FFDE7B",
"O c #FFCD73",
"+ c #FFD573",
"@ c #67E9FF",
"# c #00C8FF",
"$ c #00D5FF",
"% c #19E0FF",
"& c #73DE00",
"* c #00C529",
"= c #B7F4FF",
"- c white",
/* pixels */
"   .XXXoO++ooXXoO++ooXXX@#####$%",
"  &.XXXXO++ooXXXO++ooXXX@%###$$%",
" &*.XXXXOO+ooXXXO++ooXXX@=@%#$$%",
" * *.XXX+O++oXXXO++ooXXX=##@%%@@",
"   .XXXXoO++ooXO+++ooXXX@##%%%##",
"   .XXXXXO++ooXO++oooXXX=$$@$###",
"  .XXXXXXO++ooXOO+ooXXXX==@$$##$",
"***.XXXXXO++ooX+O++oXXXXX@@$$$$$",
"  *.XXXXXO++ooXoO++ooXXXX=@#$$$#",
"***.XXXXXO++ooXXOO+ooXXXXX@@@=@@",
"& .XXXXXXOO+ooXX+O++oXXXXXXXXXXX",
"*&.XXXXXX+O++oXXoOO+ooXXXXXXXXXX",
"*& .XXXXXoO++ooXX+O++oXXXXXXXXXX",
"**&.XXXXXXO++ooXXoOO+ooXXXXXXXXX",
"* .XXXXXXXO++ooXXX+OOO+oXXXXXXXX",
"* .XXXXXXXO++ooXXXo++OOO+oXXXXXX",
"  .XXXXXXXO++ooXXXXo+++OOOOOOOOO",
" * .XXXXXXO++ooXXXXXoo++++++++++",
"** .XXXXXXOO+ooXXXXXXooo++++++++",
"   .XXXXXX+OO+oXXXXXXXXooooooooo",
" *.XXXXXXXo+OO+oXXXXXXXXXooooooo",
"   .XXXXXXXo+OOO+oXXXXXXXXXXXXXX",
"   .XXXXXXXXo++OOOO+oXXXXXXXXXXX",
"** .XXXXXXXXXo+++++OOOOOOO+oXXXX",
" *.XXXXXXXXXXXoo+++++++++OOOOOOO",
"  .XXXXXXXXXXXXooooo++++++++++++",
" **.XXXXXXXXXXXXXooooooooo++++++",
"  * ..X.XXXX.XX.XXXXX.oo.ooooooo",
"   .. .*....*..&.XX..&.. .X.o...",
"&&&    ** **    &.. &*.&&..*.***",
"**&       **    &** &**      ** ",
" *&             * * * *   **    "
};
