/* XPM */
static char *result[] = {
/* columns rows colors chars-per-pixel */
"32 32 14 1 ",
"  c #19E0FF",
". c #00C8FF",
"X c #00D5FF",
"o c #B7F4FF",
"O c #FFE683",
"+ c #FFDE7B",
"@ c #FFCD73",
"# c #FFD573",
"$ c #187329",
"% c #089C39",
"& c #73DE00",
"* c #67E9FF",
"= c #00C529",
"- c white",
/* pixels */
" ...XX..oOOOOOO+@##++OO+@##+O$%%",
".....X..oOOOOOOO@@##++OO@##OO$&%",
".....X *oOOOOOOO#@##++OO@##+$==&",
" ...X*o.oOOOOOOO+@##++OO@##+$%==",
"**  *XXX*OOOOOOOO@##++OO@##+$%%=",
"..  XXXXoOOOOOOOO@##++OO@##+$%%%",
".XX ....oOOOOOOOO@##++OO@##++$%%",
"XX  ...**OOOOOOOO@##++OO@##++$%%",
"Oo*...**OOOOOOOOO@##++OO@##+$=%%",
"Ooo*o*oOOOOOOOOOO@##++OO@##+$%%=",
"OOOOOOOOOOOOOOOO@@##++OO@##+$%%=",
"OOOOOOOOOOOOOOO@@###++OO@##++$=%",
"OOOOOOOOOOOOOO@@###+++OO@##++$=%",
"OOOOOOOOOOOO@@####+++OOO#@#+$%%%",
"OOOOOOOOOOO@@####+++OOOO+@##$%%%",
"@@@@#+OOO@@####++++OOOOOO@##$&=%",
"###@@@@@@@####++++OOOOOOO@##$==%",
"############++++OOOOOOOOO@##$=%%",
"++++#######++++OOOOOOOOOO@##+$%%",
"+++++++++++++OOOOOOOOOOOO@##$%%%",
"+OOOO+++++++OOOOOOOOOOOOO@##+$==",
"OOOOOOOOOOOOOOOOOOOOOOOO@@##+$&=",
"OOOOOOOOOOOOOOOOOOOOOOO@@###$%&&",
"@#+OOOOOOOOOOOOOOOOOOO@####+$=%%",
"@@@@@@#+OOOOOOOOOOOO@@#+##++$=%%",
"#####@@#+OOOOOOOOO@@@###++++O$==",
"#######@@@@@@@@@@@@####++++O$===",
"+++++$##$##########$##$++OOO$==%",
"$++$$%$$=$#$#$$##$$%$$&$O$$$$%%%",
"&$$%%%$==$$=$%%$$=&%$==$$%==%===",
"==&%%%%%%%==%%%%&==%&==%%%%%%==%",
"%=&%%%%%%%%%%%%%=%=%=%=%%%==%%%%"
};
