/* XPM */
static char *result[] = {
/* columns rows colors chars-per-pixel */
"32 32 14 1 ",
"  c #19E0FF",
". c #00C8FF",
"X c #00D5FF",
"o c #67E9FF",
"O c #B7F4FF",
"+ c #FFE683",
"@ c #FFCD73",
"# c #FFD573",
"$ c #FFDE7B",
"% c #187329",
"& c #089C39",
"* c #00C529",
"= c #73DE00",
"- c white",
/* pixels */
" ...XX.. .....X  ...XX.. .....X ",
".....X..  ...XX .....X..  ...XX ",
".....X oOOo .XX .....X oOOo .XX ",
" ...XoO....o  oo ...XoO....o  oo",
"oo  oXXX...   ..oo  oXXX...   ..",
"..  XXXXXXXoX.....  XXXXXXXoX...",
".XX ......oXX..X.XX ......oXX..X",
"XX  ....oOoXXXXXXX  ....oOoXXXXX",
"oOoo..oOOoX.XXX.  o...OooooOoooo",
"+++oOooooo.XXX. oOoOoOO++++++++o",
"+++++++++oOOooooo+++++++++++++++",
"++++++++++++++++++++++++++++++++",
"++++++++++++++++++++++++++++++++",
"++++++++++++++++++++++++++++++++",
"++++++++++++++++++++++++++++++++",
"@#$+++++++++++++++++++++++++++++",
"#@@@@@@@@@@@#$++++@@@@@@@@@@@@@@",
"###########@@@@@@@@#############",
"$###############################",
"$+$$$$$$$$$$########$$$$$$$$$$$$",
"$++$$$$$$$$$$$$$$$$$$$$$$$$$$$$$",
"+++++++++@@@@@@@#$$$$+++++++++++",
"++@@@@@@@######@@@@@#$++++++++++",
"@@@#################@@@@#$++++++",
"##########$$$$$$#######@@@@@@@@@",
"####$$$$$$$$$$$$$$$$$###########",
"$$$$$$$$$$$++++++$$$$$$$########",
"$$$$$%++%++++++++++++%$$%$$$$$$$",
"%++%%&%%*%+%+%%%%++%%=%%&%$%$%%%",
"=%%&&&%**%%*%&&&=%%&=*%==%%*%***",
"**=&&&&&&&**&&&&=**&=**&&&&&&**&",
"&*=&&&&&&&&&&&&&*&*&*&*&&&**&&&&"
};
