/* XPM */
static char *result[] = {
/* columns rows colors chars-per-pixel */
"32 32 14 1 ",
"  c #089C39",
". c #73DE00",
"X c #00C529",
"o c #187329",
"O c #FFE683",
"+ c #FFCD73",
"@ c #FFD573",
"# c #FFDE7B",
"$ c #B7F4FF",
"% c #67E9FF",
"& c #00D5FF",
"* c #00C8FF",
"= c #19E0FF",
"- c white",
/* pixels */
"   ....X    ...       XX .....  ",
"  .XX.      XX.       X   .XXX. ",
" .XX.  ...  oX.  oo.o  ooo .XXXo",
" X XX  oXoooOooooOOoOooOOOo oooO",
"   X  oOoOOOOOOOOOOOOOOOOOOoOOOO",
"   oooOOOOOOOOOOOOOOOOOOOOOOOOOO",
"  .oOOOOOOOOOOOOOOOOOOOOOOOOOOOO",
"XXXoOOOOOOOOOOOOOOOO++++++++@#OO",
"  XoOOOOOOOOOOOOO++++@@@@@@@++++",
"XXX oOOOOOOOO++++@@@@@@@@@@@@@@@",
".  oOOOOOOO+++@@@@@@@@#######@@@",
"X. oOOOOOO++@@@@@@##############",
"X.oOOOOOOO+@@@@########OOOOOOO##",
"XXoOOOOOO++@@######OOOOOOOOOOOOO",
"X XoOOOO++@@@###OOOO+++++++++@#O",
"X XoOOOO+@@@###OOOO++@@@@@@@+++@",
"  oOOOOO+@@###OOOO++@@@@@@@@@@++",
" X oOOOO+@@##OOOO++@@@#######@@@",
"XX oOOOO+@@##OO+++@@@##########@",
"   oOOOO+@@##OO+@@@@###OOOOOOO##",
" XXoOOOO+@@##O++@@@###OOOOOOOOOO",
"   oOOOO+@@##O+@@@###OOOOOOOOOOO",
"  oOOOOO+@@##O+@@###OOOOOOOOOOOO",
"XX oOOO++@@##O++@##OOOOOOOOO$%%%",
" X oOOO+@@@##O@+@@#OOOOOOOO%%&&*",
"   oOOO+@@###O#+@@##OOOOO$%$&&*=",
" XoOOOO+@@##OOO+@@##OOOO%%&&%==%",
"  oOOOO+@@##OOO+@@##OOO$$*=%=***",
"   oOOO+@@##OOO+@@##OOO%%%%=****",
"...oOOO+@@##OOO+@@##OOO%%%=&&&**",
"XXoOOOO+@@##OOO+@@##OOO%%=***&&%",
" XoOOOO+@@##OOO+@@##OOO%=*****&%"
};
