/* XPM */
static char *result[] = {
/* columns rows colors chars-per-pixel */
"32 32 14 1 ",
"  c #089C39",
". c #187329",
"X c #FFE683",
"o c #FFDE7B",
"O c #FFCD73",
"+ c #FFD573",
"@ c #B7F4FF",
"# c #00C8FF",
"$ c #00D5FF",
"% c #19E0FF",
"& c #67E9FF",
"* c #73DE00",
"= c #00C529",
"- c white",
/* pixels */
"  .XXXXoO++ooXXoO++ooXXX@#####$%",
"  .XXXXOO++ooXXOO++ooXXX&%###$$%",
" *=.XXXO+++ooXXO+++ooXXX&@&%#$$%",
" = .XXOO++oooXXO++oooXXX@##&%%&&",
"   .XXO+++ooXXXOO+ooXXXX&##%%%##",
"    .XO++oooXXX+O++oXXXX&$$&$###",
"  *.XXO++ooXXXXoOO+ooXXX&#&$$##$",
"===.XXO++ooXXXXX+O++oXXX&@&$$$$$",
"  =.XXO++ooXXXXXoO++ooXX&&$#$$$#",
"===.XXO++ooXXXXXXO++ooXX@##$$$#%",
"* .XXXO++ooXXXXXXO++ooXX&#$$&%%&",
"=*.XXX+O+ooXXXXXXO++ooXX&#%&%###",
"=* .XXoO++oXXXXXXO++ooXX@&&%####",
"==*.XXXO++ooXXXXX+O+ooXXX@%$$$##",
"= =.XXXOO+ooXXXXXoO++oXXX&@##$$&",
"= =.XXX+O++oXXXXXXO++ooXXXX###$&",
"   .XXXoO++ooXXXXXO++ooXXXX###$%",
" =  .XXXOO+ooXXXXXO++ooXXXX&#$$%",
"== .XXXX+O++oXXXXXO++ooXXXX&#$$%",
"   .XXXXoO++ooXXXXO++ooXXXX@%%&&",
" =.XXXXXXO++ooXXXXO++ooXXXX&%%##",
"   .XXXXX+O+ooXXXXO++ooXXXX&$###",
"   .XXXXXoO++oXXXXO++ooXXXX&$##$",
"== .XXXXXXO++ooXXXO++ooXXXX&$$$$",
" =.XXXXXXOO++ooXXXO++ooXXXX&$$$#",
"  .XXXXXXO+++ooXXXO++ooXXXX@$$#%",
" ==.XXXXXO++oooXXXO++ooXXXX&&%%&",
"  =.XXXXOO++ooXXXXO++ooXXX@&%###",
"  .XXXXXO+++ooXXXOO++ooXXX&%####",
"**.XXXXXO++oooXXOO+++ooXX&&$$$##",
"==*.XXXO+++ooXXOO+++oooX@&###$$&",
" =.XXXXO++oooXXO+++oooX@@#####$&"
};
