/* XPM */
static char *result[] = {
/* columns rows colors chars-per-pixel */
"32 32 14 1 ",
"  c #19E0FF",
". c #00C8FF",
"X c #00D5FF",
"o c #67E9FF",
"O c #FFE683",
"+ c #FFDE7B",
"@ c #FFCD73",
"# c #FFD573",
"$ c #187329",
"% c #089C39",
"& c #B7F4FF",
"* c #00C529",
"= c #73DE00",
"- c white",
/* pixels */
" ...XX..oOOOOOO+@##++OO+@##+O$%%",
".....X..&OOOOOOO@##++OOO@##O$*=%",
".....X ooOOOOOOO@##++OOO@##++$*=",
" ...Xo&.oOOOOOOO@##++OO@@##++$**",
"oo  oXXXoOOOOOOO@##++OO@###+$%%*",
"..  XXXX&OOOOOOO@##++OO@##++$%%%",
".XX ....oOOOOOOO@##++OO@##++$%%%",
"XX  ....oOOOOOOO@##++OO@##++$%%%",
"  o...o&oOOOOOOO@##++OO@##++$*%%",
" o.  oo.&&OOOOOO@##++OO@@#++$%%*",
"oo  X....oOOOOOO@##++OO#@##+$%%*",
".ooX.....&OOOOOO#@#++OO+@##++$*%",
".o&oo  oooOOOOOO+@##+OOO@##++$*%",
"o&o...  oooOOOOOO@##++OO@##+$%%%",
"&XX....Xo &&OOOOO@##++OO@##++$%%",
" .XXXXXX ..&OOOOO@##++OO@##++$*%",
" ...XX.. ..oOOOOO@##++O@@##+$**%",
".....X..  .oOOOOO@##++O@###+$*%%",
".....X o&&o&OOOOO@##++O@##++$%%%",
" ...Xo&....oOOOOO#@#++O@##++$%%%",
"oo  oXXX...oOOOOO+@##+O@##++O$**",
"..  XXXXXXXo&OOOOO@##+@@##++O$=*",
".XX ......oXoOOOOO@##+@###++$%==",
"XX  ....o&oXoOOOO@@##+@##+++$*%%",
"  o...o&&oX.oOOOO@###+@##++O$*%%",
" o.  oo....ooOOOO@##++@##++OO$**",
"oo  X.....o&OOOOO@##++@##++OO$**",
".ooX......oOOOOO@@##++@##++O$**%",
".o&oo  ooooOOOOO@###++@##++O$%%%",
"o&o...  ooOOOOOO@##+++@@#++O$***",
"&XX....ooOOOOOOO@##++O#@##+OO$*%",
" .XXXXXXOOOOOOO@###++O+@##++O$%%"
};
