/* XPM */
static char *result[] = {
/* columns rows colors chars-per-pixel */
"32 32 14 1 ",
"  c #089C39",
". c #73DE00",
"X c #00C529",
"o c #187329",
"O c #FFE683",
"+ c #FFCD73",
"@ c #FFD573",
"# c #FFDE7B",
"$ c #67E9FF",
"% c #B7F4FF",
"& c #00D5FF",
"* c #19E0FF",
"= c #00C8FF",
"- c white",
/* pixels */
"   ....X    ...       XX .....  ",
"  .XX.      XX.       X   .XXX. ",
" ooXo  ooo   o.oo.o.Xoooo  .XXX.",
"oOOoOooOOOo oooOOoOooOOOOoooX XX",
"OOOOOOOOOOOoOOOOOOOOOOOOOOOOo  X",
"OOOOOOOOOOOOOOOOOOOOOOOOOOOOo   ",
"O++++++++++++++@#OOOOOOOOOOoX   ",
"+@@@@@@@@@@@@@@++@#OOOOOOOOOo   ",
"@@@@@@@@@@@@@@@@+++@#OOOOOOOOo  ",
"@@##############@@+@@#OOOOOOOo X",
"#################@++@##OOOOOo  X",
"###OOOOOOOOOOOOOO#@++@#OOOOOoXX ",
"#OOOOOOOOOOOOOOOOO#@+@@#OOOOo X ",
"OOOOOOO+++++++@#OOO#@+@##OOOOo  ",
"OOO+++++@@@@@++@#OOO#++@#OOOOo  ",
"++++@@@@@@@@@@++@#OOO@+@@#OOo.X ",
"@@@@@@@@@#####@+@@#OO#+@@##OoXX ",
"@@@@@##########++@##OO@+@##OoX  ",
"##########OOOOO@++@#OO#+@@#OOo  ",
"######OOOOOOOOO#@+@@#OO+@@##Oo  ",
"#OOOOOOOOOOOOOOO#+@@##O@+@##o XX",
"O$$%&&&$OOOOOOOOO+@@##O#+@@#o .X",
"O$&*===%$OOOOOOOO+@@##OO+@@##o..",
"&&**====$OOOOOOOO+@@##OO+@@##o  ",
"**$===$%$OOOOOOOO@+@##OO+@@#oX  ",
"*$=**$$=$OOOOOOOO++@@#OO+@@#o XX",
"$$**&===$OOOOOOOO+@@@##O+@@#oXXX",
"=$$&====$OOOOOOOO+@@###O+@@##oX ",
"=$%$$**$%OOOOOOO++@@##O++@@##o  ",
"$%$===*$$OOOOOOO+@@@##O+@@@#oXXX",
"%&&====&$OOOOOO++@@###O+@@##oXX ",
"*=&&&&&&OOOOOOO+@@@##OO+@@##o   "
};
