/* XPM */
static char *result[] = {
/* columns rows colors chars-per-pixel */
"32 32 11 1 ",
"  c #2D423A",
". c #42503A",
"X c #4D5D46",
"o c #517347",
"O c #629343",
"+ c #00C8FF",
"@ c #00D5FF",
"# c #19E0FF",
"$ c #67E9FF",
"% c #B7F4FF",
"& c None",
/* pixels */
"&#+++@@++#+++++@##+++@@++#+++++@",
"&+++++@++##+++@@#+++++@++##+++@@",
"&+++++@#$%%$#+@@#+++++@#$%%$#+@@",
"&#+++@$%++++$##$$#+++@$%++++$##$",
"&$$##$@@@+++###++$$##$@@@+++###+",
"&++##@@@@@@@$@+++++##@@@@@@@$@++",
"&+@@#++++++$@@++@+@@#++++++$@@++",
"&@@##++++$%$@@@@@@@##++++$%$@@@@",
"&##$+++$%%$@+@@@      +$%%$@+@@@",
"&#$+##$$++++@@@ XooooX $++++@@@+",
"&$$##@+++++@@$ XOOOoooX +++@@$##",
"&+$$@++++++   .OOOOoOoX. ++#$#++",
"&+$%$$##$$ XooXXOOOOoX.. $$$#+++",
"&$%$+++## XOOooX........ $$#@@@+",
"&%@@++++ .OOOOOo ...X.... #+++@@",
"&#+@@@@@ XoOOOoX. .XoX... +++++@",
"&#+++@@+ XoooX... .OOo... +++++@",
"&+++++@ .XXooXX.. XOOo... #+++@@",
"&+++++@ XOOXXXX...XooX... %$#+@@",
"&#+++@$.Xoo.XXX...oooX.. $++$##$",
"&$$##$@$$XX.XXX...oooX.$$+++###+",
"&++##@@@@$%%%%%%%%%%$$$@@@@@$@++",
"&+@@#++++++$@@++@+@@#++++++$@@++",
"&@@##++++$%$@@@@@@@##++++$%$@@@@",
"&##$+++$%%$@+@@@+##$+++$%%$@+@@@",
"&#$+##$$++++@@@+##$+##$$++++@@@+",
"&$$##@+++++@@$##$$$##@+++++@@$##",
"&+$$@++++++#$#++++$$@++++++#$#++",
"&+$%$$##$$$$#+++++$%$$##$$$$#+++",
"&$%$+++##$$#@@@++$%$+++##$$#@@@+",
"&%@@++++@$#+++@@$%@@++++@$#+++@@",
"&#+@@@@@@#+++++@$#+@@@@@@#+++++@"
};
