/* XPM */
static char *cb00f870ccf648558994611d1f91091bXccA9Ss9sdnj6oli[] = {
/* columns rows colors chars-per-pixel */
"32 32 10 1 ",
"  c #00C8FF",
". c #00D5FF",
"X c #19E0FF",
"o c #67E9FF",
"O c #B7F4FF",
"+ c #2D423A",
"@ c #4D5D46",
"# c #517347",
"$ c #629343",
"% c #42503A",
/* pixels */
"     ..  X     .XX   ..  X     .",
"      .  XX   ..X     .  XX   ..",
"      .XoOOoX ..X     .XoOOoX ..",
".X   .oO    oXXooX   .oO    oXXo",
".ooXXo...   XXX  ooXXo...   XXX ",
".  XX.......o.     XX.......o.  ",
"O ..X      o..  . ..X      o..  ",
"O..XX    oOo.......XX    oOo....",
"OXXo   oOOo. ...++++++ oOOo. ...",
" Xo XXoo    ...+@####@+o    ... ",
" ooXX.     ..o+@$$$###@+   ..oXX",
"  oo.      +++%$$$$#$#@%+  XoX  ",
"  oOooXXoo+@##@@$$$$#@%%+oooX   ",
" oOo   XX+@$$##@%%%%%%%%+ooX... ",
" O..    +%$$$$$#+%%%@%%%%+X   ..",
".X .....+@#$$$#@%+%@#@%%%+     .",
".X   .. +@###@%%%+%$$#%%%+     .",
".     .+%@@##@@%%+@$$#%%%+X   ..",
".     .+@$$@@@@%%%@##@%%%+OoX ..",
".X   .o%@##%@@@%%%###@%%+o  oXXo",
"OooXXo.oo@@%@@@%%%###@%oo   XXX ",
"O  XX....oOOOOOOOOOOooo.....o.  ",
"  ..X      o..  . ..X      o..  ",
" ..XX    oOo.......XX    oOo....",
"OXXo   oOOo. ... XXo   oOOo. ...",
"XXo XXoo    ... XXo XXoo    ... ",
"XooXX.     ..oXXoooXX.     ..oXX",
"X oo.      XoX    oo.      XoX  ",
"X oOooXXooooX     oOooXXooooX   ",
"XoOo   XXooX...  oOo   XXooX... ",
"XO..    .oX   ..oO..    .oX   ..",
"XX ......X     .oX ......X     ."
};
