/* XPM */
static char *result[] = {
/* columns rows colors chars-per-pixel */
"32 32 14 1 ",
"  c #089C39",
". c #73DE00",
"X c #00C529",
"o c #187329",
"O c #FFE683",
"+ c #FFCD73",
"@ c #FFD573",
"# c #FFDE7B",
"$ c #67E9FF",
"% c #B7F4FF",
"& c #00C8FF",
"* c #00D5FF",
"= c #19E0FF",
"- c white",
/* pixels */
"   ....X    ...       XX .....  ",
"  .XX.      XX.       X   .XXX. ",
" ooXo  ooo   X.o oo.o  ooo .XXXo",
"oOOoOooOOOo oooOoOOoOooOOOo oooO",
"OOOOOOOOOOOoOOOOOOOOOOOOOOOoOOOO",
"OOOOOOOOOOOOOOOOOOOOOOOOOOOOOOOO",
"OOOOOOOOOOOOOOOOOOOOOOOOOOOOOOOO",
"++@#OOOOOOOOOOOOOOOO+++++++++++@",
"@++++@#OOOOOOOOOOO+++@@@@@@@@@++",
"@@@@++++++++++++++@@@@@@@@@@@@@@",
"#@@@@@@@@@@@@@@@@@@@@@#########@",
"#####@@@@@@@@@@@@@@#############",
"#######################OOOOOOOOO",
"OOOOOO+++@##########OOOOOOOOOOOO",
"O+++++@@++++@#OOOOOOOOOOOOOOOOOO",
"++@@@@@@@@@++@#OOOOOOOOOOOOOOOOO",
"@@@@@@@##@@@+++++@#OOOOOOO++++++",
"@@@#########@@@@+++++++++++@@@@@",
"########OO###@@@@@@@@@@@@@@@@@@@",
"####OOOOOOOOO####@@@@@@@@@@@####",
"#OOOOOOOOOOOOO##################",
"OOOOOOOOOOOOOOOOOO###########OOO",
"$$$%&&&$$%$%OOOOOOOOOOOOOOOOOOOO",
"**==&&&&$%$%$%%OOOOOOOOOOOOO$%$$",
"==$&&&$%%$*&**$$%%$%%%%%%%$$$**&",
"=$&==$$&&&&***&==$&==$$&&&&***&=",
"$$==*&&&&&**$==$$$==*&&&&&**$==$",
"&$$*&&&&&&=$=&&&&$$*&&&&&&=$=&&&",
"&$%$$==$$$$=&&&&&$%$$==$$$$=&&&&",
"$%$&&&==$$=***&&$%$&&&==$$=***&&",
"%**&&&&*$=&&&**$%**&&&&*$=&&&**$",
"=&******=&&&&&*$=&******=&&&&&*$"
};
