/* XPM */
static char * portal_xpm[] = {
"32 32 12 1",
" 	c #19E0FF",
".	c #00C8FF",
"+	c #00D5FF",
"@	c #489387",
"#	c #67E9FF",
"$	c #B7F4FF",
"%	c #428286",
"&	c #376F79",
"*	c #2F5F68",
"=	c #295B58",
"-	c #234C4E",
";	c #1D3D3B",
" .....+.. @..@@@@.....+..  ...++",
" .....+ #$$#@@%%@@@...+@#$$# .++",
"# ...+@@...@@%%%%%@@@+#@@...#  #",
".##  @%++.@@%%&&&%%%@@++%@..   .",
"...  @+++@@%%&*&&&%%%@@++%@+#+..",
"+.++@%..@@%%&***&&&&%%@@..@#+@..",
"+++ %..@@%%&&*****&&&%%@@#%#++++",
".  #%.@@%%&&***=****&&%%@$#@.+++",
"  #.  @%%&&***====***&%%@@..+++.",
"##@  +@%%&&**======**&&%@@.++#  ",
"..@#+.@%%&**===--==**&&%%@. # ..",
"..#$##%%&&**==-;--=**&&%%@##@...",
".#$@.@%%&&*==--;;-=***&&%@# @++.",
"#$@%.@%%&**==-;;;-==**&&%@@.@.++",
"# @++%%&&**=--;;---=**&&%%@....+",
"  %.@%%&&**=--;;;--=**&&%%@....+",
" @..@%%&&**==-;;;--=**&&%%@...++",
" ....%%&&**==-;;;-==*&&&%%@# .++",
"# ...@%&&&*==---;-==*&&&%%@.#  #",
".#@  @%&&&**==----==*&&&%@@. @ .",
"..%@ @%%&&**===--==**&&%%@@+#+..",
"+.++ @%%%&**=======*&&%%%@.#++..",
"+++  .@%%&&**=====**&%%%@@$#@+++",
".  #..@@%%&&***=****&%%@@$#@.+++",
"  #@  #@%%&&******&&&%@@...@+++.",
"### @+.@@%&&&&**&&&%%%@...@%+#  ",
"..##@..@@%%&&&&&&&&%%%@...% # ..",
"..#$@#  @%%%%&&&&%%%@@@ #@%# ...",
".#$#%..  @%%%&&&&%%%@..  @# +++.",
"#$++%@..+@%%%%&%%%%@@...+# ...++",
"# .++%@++ @@%%%%@@.++++++ .....+",
"  ...++.. ..@@@@  ..@++.. .....+"};
