/* XPM */
static char *result[] = {
/* columns rows colors chars-per-pixel */
"32 32 13 1 ",
"  c #3F3851",
". c #FBCA97",
"X c #E27F6D",
"o c #FFEAB7",
"O c #89365C",
"+ c #AE444E",
"@ c #BF5753",
"# c #CD7363",
"$ c #FFFAD6",
"% c #EDA27F",
"& c #D25654",
"* c #584B57",
"= c white",
/* pixels */
" .....XX                        ",
" o....XX  O+++@+ +#####+        ",
" $....XX  ++++## #######        ",
" $....XX  O+++@+ +#####+        ",
" o....XX                        ",
" ....%XX    O@#####+            ",
" %..%XXX    +#######            ",
" XXXXXX&    O@#####+            ",
"                                ",
" XXXXXX&  O+++@+         +#####+",
" %..%XXX  ++++## +@###@+ #######",
" ....%XX  O+++@+ @#####@ +#####+",
" .....XX                        ",
" o....XX    O@#####+ +####+ +###",
" $....XX    +####### ###### ####",
" o....XX    O@#####+ +####+ +###",
" .....XX                        ",
" o....XX  O+++#+ +#####+ +#####+",
" o....XX  ++++@# @#####@ @#####@",
" ....%XX  O++++O O+++++O O+++++O",
" %..%XXX                        ",
" XXXXXX&    O++++++O        O+++",
"                                ",
" &XXXXXX&                       ",
" XXXXXXXX &XXXXXXXXXXX& &XXXXXXX",
" X%....%X XXXXXXXXXXXXX XXXXXXXX",
" %......% XX%.......%XX XX%.....",
" ........ X%.........%X X%......",
" ........ X...........X X.......",
" ........ X...........X X.......",
" %.o$oo.% X%..o.o$o..%X X%..o.o$",
"*                               "
};
