/* XPM */
static char *result[] = {
/* columns rows colors chars-per-pixel */
"32 32 12 1 ",
"  c #3F3851",
". c #AE444E",
"X c #CD7363",
"o c #BF5753",
"O c #89365C",
"+ c #E27F6D",
"@ c #D25654",
"# c #FBCA97",
"$ c #EDA27F",
"% c #FFEAB7",
"& c #FFFAD6",
"* c white",
/* pixels */
"                                ",
"                                ",
"                                ",
"                                ",
"                                ",
"                                ",
"                                ",
"                                ",
"                                ",
"         .XXXXX.         .XXXXX.",
" .oXXXo. XXXXXXX .oXXXo. XXXXXXX",
" oXXXXXo .XXXXX. oXXXXXo .XXXXX.",
"                                ",
"XXX. .XXXX. .XXXXXX. .XXXX. .XXX",
"XXXX XXXXXX XXXXXXXX XXXXXX XXXX",
"XXX. .XXXX. .XXXXXX. .XXXX. .XXX",
"                                ",
" .XXXXX. .XXXXX. .XXXXX. .XXXXX.",
" oXXXXXo oXXXXXo oXXXXXo oXXXXXo",
" O.....O O.....O O.....O O.....O",
"                                ",
"...O O....O          O....O O...",
"                                ",
"                                ",
"++++@ @++++++++++@ @++++++++++++",
"+++++ ++++++++++++ +++++++++++++",
"##$++ ++$######$++ ++$##########",
"###$+ +$########$+ +$###########",
"####+ +##########+ +############",
"####+ +##########+ +############",
"%##$+ +$##%&%%##$+ +$##%&&%##%&%",
"                                "
};
