/* XPM */
static char *result[] = {
/* columns rows colors chars-per-pixel */
"32 32 13 1 ",
"  c #3F3851",
". c #E27F6D",
"X c #FBCA97",
"o c #FFEAB7",
"O c #AE444E",
"+ c #CD7363",
"@ c #BF5753",
"# c #89365C",
"$ c #EDA27F",
"% c #D25654",
"& c #FFFAD6",
"* c #584B57",
"= c white",
/* pixels */
"                        ..XXXXo ",
"         O+++++O @OOO#  ..XXXXo ",
"         +++++++ +OOOO  ..XXXXX ",
"         O+++++O @OOO#  ..XXXXo ",
"                        ..XXXXX ",
"            O+++++@#    ..$XXXX ",
"            +++++++O    ...$XX$ ",
"            O+++++@#    %...... ",
"                                ",
"         O+++++O @OOO#  %...... ",
" O@+++@O +++++++ +OOOO  ...$XX$ ",
" @+++++@ O+++++O @OOO#  ..$XXXX ",
"                        ..XXXXX ",
"+++O O++++O O+++++@#    ..XXXXo ",
"++++ ++++++ +++++++O    ..XXXX& ",
"+++O O++++O O+++++@#    ..XXXXo ",
"                        ..XXXXX ",
" O+++++O O+++++O +OOO#  ..XXXXo ",
" @+++++@ @+++++@ @OOOO  ..XXXXX ",
" #OOOOO# #OOOOO# #OOO#  ..$XXXX ",
"                        ...$XX$ ",
"OOO#        #OOOOOO#    %...... ",
"                                ",
"                       %......% ",
"..% %................% ........ ",
"... .................. .$XXXX$. ",
"$.. ..$XXXXXXXXXXXX$.. $XXXXXX$ ",
"X$. .$XXXXXXXXXXXXXX$. XXXXXXXX ",
"XX. .XXXXXXXXXXXXXXXX. XXXXXXXX ",
"XX. .XXXXXXXXXXXXXXXX. XXXXXXXX ",
"X$. .$XXoXo&oXoo&oXX$. $Xoo&oX$ ",
"                               *"
};
