/* XPM */
static char *result[] = {
/* columns rows colors chars-per-pixel */
"32 32 12 1 ",
"  c #3F3851",
". c #FFEAB7",
"X c #FBCA97",
"o c #E27F6D",
"O c #89365C",
"+ c #AE444E",
"@ c #BF5753",
"# c #CD7363",
"$ c #EDA27F",
"% c #D25654",
"& c #FFFAD6",
"* c white",
/* pixels */
" .XXXXoo                        ",
" XXXXXoo  O+++@+ +#####+        ",
" XXXX$oo  ++++## #######        ",
" $XX$ooo  O+++@+ +#####+        ",
" oooooo%                        ",
"            O@#####+ +##+       ",
" oooooo%    +####### ####       ",
" $XX$ooo    O@#####+ +##+       ",
" XXXX$oo                        ",
" XXXXXoo  O+++@+ +#####+        ",
" .XXXXoo  ++++## #######        ",
" &XXXXoo  O+++@+ +#####+        ",
" .XXXXoo                        ",
" .XXXXoo    O@#####+ +##+       ",
" XXXXXoo    +####### ####       ",
" XXXX$oo    O@#####+ +##+       ",
" $XX$ooo                        ",
" oooooo%  O+++@+ +#####+        ",
"          ++++## #######        ",
" oooooo%  O+++@+ +#####+        ",
" $XX$ooo                        ",
" XXXX$oo    O@#####+ +##+       ",
" .XXXXoo    +####### ####       ",
" .XXXXoo    O@#####+ +##+       ",
" XXXXXoo                        ",
" .XXXXoo  O+++@+ +#####+        ",
" &XXXXoo  ++++## #######        ",
" .XXXXoo  O+++@+ +#####+        ",
" &XXXXoo                        ",
" &XXXXoo    O@#####+ +##+       ",
" .XXXXoo    +####### ####       ",
" XXXXXoo    O@#####+ +##+       "
};
