/* XPM */
static char *result[] = {
/* columns rows colors chars-per-pixel */
"32 32 12 1 ",
"  c #3F3851",
". c #E27F6D",
"X c #FBCA97",
"o c #AE444E",
"O c #CD7363",
"+ c #BF5753",
"@ c #89365C",
"# c #FFEAB7",
"$ c #FFFAD6",
"% c #EDA27F",
"& c #D25654",
"* c white",
/* pixels */
"                        ..XXXXX ",
"         oOOOOOo +ooo@  ..XXXX# ",
"         OOOOOOO Ooooo  ..XXXX$ ",
"         oOOOOOo +ooo@  ..XXXX$ ",
"                        ..XXXX# ",
"        +Oo oOOOOO+@    ..XXXX$ ",
"        OOO OOOOOOOo    ..XXXX# ",
"        oO+ oOOOOO+@    ..XXXXX ",
"                        ..XXXX# ",
"         oOOOOOo +ooo@  ..XXXX# ",
"         OOOOOOO Ooooo  ..%XXXX ",
"         oOOOOOo +ooo@  ...%XX% ",
"                        &...... ",
"        +Oo oOOOOO+@            ",
"        OOO OOOOOOOo    &...... ",
"        oO+ oOOOOO+@    ...%XX% ",
"                        ..%XXXX ",
"         oOOOOOo +ooo@  ..XXXXX ",
"         OOOOOOO Ooooo  ..XXXX# ",
"         oOOOOOo +ooo@  ..XXXX# ",
"                        ..XXXX$ ",
"        +Oo oOOOOO+@    ..XXXX# ",
"        OOO OOOOOOOo    ..XXXXX ",
"        oO+ oOOOOO+@    ..%XXXX ",
"                        ...%XX% ",
"         oOOOOOo +ooo@  &...... ",
"         OOOOOOO Ooooo          ",
"         oOOOOOo +ooo@  &...... ",
"                        ...%XX% ",
"        +Oo oOOOOO+@    ..%XXXX ",
"        OOO OOOOOOOo    ..XXXXX ",
"        oO+ oOOOOO+@    ..XXXX# "
};
