/* XPM */
static char *result[] = {
/* columns rows colors chars-per-pixel */
"32 32 14 1 ",
"  c #584B57",
". c #3F3851",
"X c #EDA27F",
"o c #FBCA97",
"O c #FFEAB7",
"+ c #FFFAD6",
"@ c #E27F6D",
"# c #D25654",
"$ c #89365C",
"% c #9E3B57",
"& c #AE444E",
"* c #BF5753",
"= c #CD7363",
"- c white",
/* pixels */
" ...............................",
".XoO+OOoX.@XooO+OOoO+OoOooX@.@Xo",
".oooooooo.@oooooooooooooooo@.@oo",
".oooooooo.@oooooooooooooooo@.@oo",
".oooooooo.@XooooooooooooooX@.@Xo",
".XooooooX.@@XooooooooooooX@@.@@X",
".@XooooX@.@@@@@@@@@@@@@@@@@@.@@@",
".@@@@@@@@.#@@@@@@@@@@@@@@@@#.#@@",
".#@@@@@@#.......................",
"................................",
".@@@@@@#.........$%&&&%$.$%&&&%$",
".XooX@@@..$&&&&$.%&&&&&%.%&&&&&%",
".ooooX@@........................",
".ooooo@@....$&&&&&&$.$&&&&$.$&&&",
".Ooooo@@....&&*====*.*====*.*===",
".Ooooo@@....$&=====&.&====&.&===",
".+oooo@@........................",
".+oooo@@..$&&&*&.&=====&.&=====&",
".Ooooo@@..&&&&==.=======.=======",
".ooooo@@..$&&&*&.&=====&.&=====&",
".ooooX@@........................",
".XooX@@@....$*=====&.*====*.&===",
".@@@@@@#....&=======.&*==*&.====",
"............$*=====&........&===",
".@@@@@@#........................",
".XooX@@@..$&&&*&.&====&.........",
".ooooX@@..&&&&==.======.........",
".ooooo@@..$&&&*&.&====&.........",
".Ooooo@@........................",
".ooooo@@....$======&.&==&.......",
".Ooooo@@....&=======.====.......",
".Ooooo@@....$======&.&==&......."
};
