/* XPM */
static char *result[] = {
/* columns rows colors chars-per-pixel */
"32 32 14 1 ",
"  c #3F3851",
". c #584B57",
"X c #FFFAD6",
"o c #FFEAB7",
"O c #FBCA97",
"+ c #EDA27F",
"@ c #E27F6D",
"# c #D25654",
"$ c #89365C",
"% c #9E3B57",
"& c #AE444E",
"* c #CD7363",
"= c #BF5753",
"- c white",
/* pixels */
"                               .",
"XoOoOO+@ @+OOoXXoooO+@ +OooXoO+ ",
"OOOOOOO@ @OOOOOOOOOOO@ OOOOOOOO ",
"OOOOOOO@ @OOOOOOOOOOO@ OOOOOOOO ",
"OOOOOO+@ @+OOOOOOOOO+@ OOOOOOOO ",
"OOOOO+@@ @@+OOOOOOO+@@ +OOOOOO+ ",
"@@@@@@@@ @@@@@@@@@@@@@ @+OOOO+@ ",
"@@@@@@@# #@@@@@@@@@@@# @@@@@@@@ ",
"                       #@@@@@@# ",
"                                ",
" $%&&&%$ $%&&&%$        #@@@@@@ ",
" %&&&&&% %&&&&&% $&&&$  @@@+OO+ ",
"                        @@+OOOO ",
"&&&$ $&&&&$ $&&&&&&$    @@OOOOo ",
"***= =****= =****=&&    @@OOOOo ",
"***& &****& &*****&$    @@OOOOO ",
"                        @@OOOOo ",
" &*****& &*****& =&&&$  @@OOOOX ",
" ******* ******* *&&&&  @@OOOOo ",
" &*****& &*****& =&&&$  @@OOOOO ",
"                        @@+OOOO ",
"***& =****= &*****=$    @@@+OO+ ",
"**** &=**=& *******&    #@@@@@@ ",
"***&        &*****=$            ",
"                        #@@@@@@ ",
"           &***& =&&&$  @@@+OO+ ",
"           ***** *&&&&  @@+OOOO ",
"           &***& =&&&$  @@OOOOo ",
"                        @@OOOOX ",
"        =*& &*****=$    @@OOOOX ",
"        *** *******&    @@OOOOo ",
"        &*= &*****=$    @@OOOOO "
};
